# MagicaVoxel @ Ephtracy

# group
o 

# material
mtllib Apelsin.mtl
usemtl palette

# normals
vn -1 0 0
vn 1 0 0
vn 0 0 1
vn 0 0 -1
vn 0 -1 0
vn 0 1 0

# texcoords
vt 0.0683594 0.5
vt 0.0878906 0.5
vt 0.0917969 0.5
vt 0.0996094 0.5

# verts
v -0.3 0 0.2
v -0.3 0 0
v -0.3 0 -0.2
v -0.3 0.1 0.3
v -0.3 0.1 0.2
v -0.3 0.1 0
v -0.3 0.1 -0.1
v -0.3 0.1 -0.2
v -0.3 0.1 -0.3
v -0.3 0.3 0.2
v -0.3 0.3 0.1
v -0.3 0.4 0.3
v -0.3 0.4 0.2
v -0.3 0.4 -0.2
v -0.3 0.4 -0.3
v -0.3 0.5 -0.1
v -0.3 0.5 -0.2
v -0.3 0.6 0.2
v -0.3 0.6 0.1
v -0.3 0.6 -0.2
v -0.2 0 0.3
v -0.2 0 0.2
v -0.2 0 -0.2
v -0.2 0 -0.3
v -0.2 0.1 0.3
v -0.2 0.1 0.2
v -0.2 0.1 -0.2
v -0.2 0.1 -0.3
v -0.2 0.4 0.3
v -0.2 0.4 0.2
v -0.2 0.4 -0.2
v -0.2 0.4 -0.3
v -0.2 0.5 0.3
v -0.2 0.5 0.2
v -0.2 0.5 -0.2
v -0.2 0.6 0.3
v -0.2 0.6 0.2
v -0.2 0.6 -0.2
v -0.2 0.6 -0.3
v 0.2 0 0.3
v 0.2 0 0.2
v 0.2 0 -0.2
v 0.2 0 -0.3
v 0.2 0.1 0.3
v 0.2 0.1 0.2
v 0.2 0.1 -0.2
v 0.2 0.1 -0.3
v 0.2 0.4 0.3
v 0.2 0.4 0.2
v 0.2 0.4 -0.2
v 0.2 0.4 -0.3
v 0.2 0.5 0.3
v 0.2 0.5 0.2
v 0.2 0.5 -0.2
v 0.2 0.5 -0.3
v 0.2 0.6 0.3
v 0.2 0.6 0.2
v 0.2 0.6 -0.2
v 0.2 0.6 -0.3
v 0.3 0 0.2
v 0.3 0 0.1
v 0.3 0 0
v 0.3 0 -0.2
v 0.3 0.1 0.3
v 0.3 0.1 0.2
v 0.3 0.1 -0.2
v 0.3 0.1 -0.3
v 0.3 0.2 0.3
v 0.3 0.2 0.1
v 0.3 0.2 -0.2
v 0.3 0.2 -0.3
v 0.3 0.3 0
v 0.3 0.3 -0.2
v 0.3 0.3 -0.3
v 0.3 0.4 0.3
v 0.3 0.4 0.2
v 0.3 0.4 0
v 0.3 0.4 -0.2
v 0.3 0.4 -0.3
v 0.3 0.5 0
v 0.3 0.5 -0.1
v 0.3 0.6 0.2
v 0.3 0.6 -0.1
v 0.3 0.6 -0.2
v -0.3 0.1 0.3
v -0.3 0.4 0.3
v -0.2 0 0.3
v -0.2 0.1 0.3
v -0.2 0.2 0.3
v -0.2 0.3 0.3
v -0.2 0.4 0.3
v -0.2 0.5 0.3
v -0.2 0.6 0.3
v 0 0.1 0.3
v 0 0.2 0.3
v 0.1 0.3 0.3
v 0.1 0.4 0.3
v 0.2 0 0.3
v 0.2 0.1 0.3
v 0.2 0.2 0.3
v 0.2 0.4 0.3
v 0.2 0.5 0.3
v 0.2 0.6 0.3
v 0.3 0.1 0.3
v 0.3 0.2 0.3
v 0.3 0.4 0.3
v -0.3 0 0.2
v -0.3 0.1 0.2
v -0.3 0.4 0.2
v -0.3 0.6 0.2
v -0.2 0 0.2
v -0.2 0.1 0.2
v -0.2 0.4 0.2
v -0.2 0.5 0.2
v -0.2 0.6 0.2
v 0.2 0 0.2
v 0.2 0.1 0.2
v 0.2 0.4 0.2
v 0.2 0.5 0.2
v 0.2 0.6 0.2
v 0.3 0 0.2
v 0.3 0.1 0.2
v 0.3 0.4 0.2
v 0.3 0.6 0.2
v -0.3 0 -0.2
v -0.3 0.1 -0.2
v -0.3 0.4 -0.2
v -0.3 0.5 -0.2
v -0.3 0.6 -0.2
v -0.2 0 -0.2
v -0.2 0.1 -0.2
v -0.2 0.4 -0.2
v -0.2 0.5 -0.2
v -0.2 0.6 -0.2
v 0.2 0 -0.2
v 0.2 0.1 -0.2
v 0.2 0.4 -0.2
v 0.2 0.5 -0.2
v 0.2 0.6 -0.2
v 0.3 0 -0.2
v 0.3 0.1 -0.2
v 0.3 0.4 -0.2
v 0.3 0.6 -0.2
v -0.3 0.1 -0.3
v -0.3 0.4 -0.3
v -0.2 0 -0.3
v -0.2 0.1 -0.3
v -0.2 0.4 -0.3
v -0.2 0.6 -0.3
v -0.1 0.1 -0.3
v -0.1 0.4 -0.3
v -0.1 0.5 -0.3
v -0.1 0.6 -0.3
v 0 0.4 -0.3
v 0 0.5 -0.3
v 0 0.6 -0.3
v 0.1 0 -0.3
v 0.1 0.1 -0.3
v 0.2 0 -0.3
v 0.2 0.1 -0.3
v 0.2 0.2 -0.3
v 0.2 0.3 -0.3
v 0.2 0.4 -0.3
v 0.2 0.5 -0.3
v 0.2 0.6 -0.3
v 0.3 0.1 -0.3
v 0.3 0.2 -0.3
v 0.3 0.3 -0.3
v 0.3 0.4 -0.3
v -0.2 0 0.3
v 0.2 0 0.3
v -0.3 0 0.2
v -0.2 0 0.2
v 0.2 0 0.2
v 0.3 0 0.2
v 0.2 0 0.1
v 0.3 0 0.1
v -0.3 0 0
v -0.2 0 0
v 0.2 0 0
v 0.3 0 0
v -0.3 0 -0.2
v -0.2 0 -0.2
v 0.1 0 -0.2
v 0.2 0 -0.2
v 0.3 0 -0.2
v -0.2 0 -0.3
v 0.1 0 -0.3
v 0.2 0 -0.3
v -0.3 0.1 0.3
v -0.2 0.1 0.3
v 0.2 0.1 0.3
v 0.3 0.1 0.3
v -0.3 0.1 0.2
v -0.2 0.1 0.2
v 0.2 0.1 0.2
v 0.3 0.1 0.2
v -0.3 0.1 -0.2
v -0.2 0.1 -0.2
v 0.2 0.1 -0.2
v 0.3 0.1 -0.2
v -0.3 0.1 -0.3
v -0.2 0.1 -0.3
v 0.2 0.1 -0.3
v 0.3 0.1 -0.3
v -0.3 0.4 0.3
v -0.2 0.4 0.3
v 0.2 0.4 0.3
v 0.3 0.4 0.3
v -0.3 0.4 0.2
v -0.2 0.4 0.2
v 0.2 0.4 0.2
v 0.3 0.4 0.2
v -0.3 0.4 -0.2
v -0.2 0.4 -0.2
v 0.2 0.4 -0.2
v 0.3 0.4 -0.2
v -0.3 0.4 -0.3
v -0.2 0.4 -0.3
v 0.2 0.4 -0.3
v 0.3 0.4 -0.3
v -0.2 0.6 0.3
v 0.2 0.6 0.3
v -0.3 0.6 0.2
v -0.2 0.6 0.2
v -0.1 0.6 0.2
v 0.2 0.6 0.2
v 0.3 0.6 0.2
v -0.3 0.6 0.1
v -0.1 0.6 0.1
v -0.2 0.6 0
v 0 0.6 0
v -0.1 0.6 -0.1
v 0 0.6 -0.1
v 0.1 0.6 -0.1
v 0.3 0.6 -0.1
v -0.3 0.6 -0.2
v -0.2 0.6 -0.2
v -0.1 0.6 -0.2
v 0 0.6 -0.2
v 0.1 0.6 -0.2
v 0.2 0.6 -0.2
v 0.3 0.6 -0.2
v -0.2 0.6 -0.3
v -0.1 0.6 -0.3
v 0 0.6 -0.3
v 0.2 0.6 -0.3

# faces
f 5/1/1 2/1/1 1/1/1
f 6/2/1 3/2/1 2/2/1
f 6/1/1 2/1/1 5/1/1
f 7/2/1 3/2/1 6/2/1
f 8/2/1 3/2/1 7/2/1
f 10/1/1 5/1/1 4/1/1
f 10/1/1 6/1/1 5/1/1
f 10/1/1 7/1/1 6/1/1
f 11/1/1 7/1/1 10/1/1
f 12/1/1 10/1/1 4/1/1
f 13/2/1 11/2/1 10/2/1
f 13/1/1 10/1/1 12/1/1
f 14/2/1 9/2/1 8/2/1
f 14/2/1 8/2/1 7/2/1
f 15/2/1 9/2/1 14/2/1
f 16/1/1 7/1/1 11/1/1
f 16/2/1 14/2/1 7/2/1
f 17/2/1 14/2/1 16/2/1
f 18/2/1 11/2/1 13/2/1
f 19/1/1 16/1/1 11/1/1
f 19/2/1 11/2/1 18/2/1
f 19/1/1 17/1/1 16/1/1
f 20/1/1 17/1/1 19/1/1
f 25/2/1 22/2/1 21/2/1
f 26/2/1 22/2/1 25/2/1
f 27/2/1 24/2/1 23/2/1
f 28/2/1 24/2/1 27/2/1
f 33/2/1 30/2/1 29/2/1
f 34/2/1 30/2/1 33/2/1
f 35/1/1 32/1/1 31/1/1
f 36/1/1 34/1/1 33/1/1
f 37/1/1 34/1/1 36/1/1
f 38/1/1 32/1/1 35/1/1
f 39/1/1 32/1/1 38/1/1
f 40/2/2 41/2/2 44/2/2
f 44/2/2 41/2/2 45/2/2
f 42/3/2 43/3/2 46/3/2
f 46/3/2 43/3/2 47/3/2
f 48/2/2 49/2/2 52/2/2
f 52/2/2 49/2/2 53/2/2
f 50/2/2 51/2/2 54/2/2
f 54/2/2 51/2/2 55/2/2
f 52/1/2 53/1/2 56/1/2
f 56/1/2 53/1/2 57/1/2
f 54/1/2 55/1/2 58/1/2
f 58/1/2 55/1/2 59/1/2
f 60/2/2 61/2/2 65/2/2
f 62/2/2 63/2/2 66/2/2
f 64/2/2 65/2/2 68/2/2
f 61/1/2 62/1/2 69/1/2
f 68/2/2 65/2/2 69/2/2
f 65/2/2 61/2/2 69/2/2
f 66/2/2 67/2/2 70/2/2
f 62/2/2 66/2/2 70/2/2
f 70/2/2 67/2/2 71/2/2
f 69/1/2 62/1/2 72/1/2
f 68/1/2 69/1/2 72/1/2
f 62/2/2 70/2/2 72/2/2
f 70/3/2 71/3/2 73/3/2
f 72/2/2 70/2/2 73/2/2
f 73/3/2 71/3/2 74/3/2
f 68/1/2 72/1/2 75/1/2
f 72/1/2 73/1/2 75/1/2
f 73/1/2 74/1/2 75/1/2
f 75/1/2 74/1/2 76/1/2
f 76/1/2 74/1/2 77/1/2
f 77/1/2 74/1/2 78/1/2
f 78/1/2 74/1/2 79/1/2
f 76/1/2 77/1/2 80/1/2
f 77/2/2 78/2/2 80/2/2
f 80/2/2 78/2/2 81/2/2
f 76/1/2 80/1/2 82/1/2
f 80/1/2 81/1/2 82/1/2
f 81/2/2 78/2/2 83/2/2
f 82/1/2 81/1/2 83/1/2
f 83/2/2 78/2/2 84/2/2
f 88/1/3 86/1/3 85/1/3
f 89/1/3 86/1/3 88/1/3
f 90/1/3 86/1/3 89/1/3
f 91/1/3 86/1/3 90/1/3
f 94/2/3 88/2/3 87/2/3
f 94/1/3 89/1/3 88/1/3
f 95/2/3 90/2/3 89/2/3
f 95/1/3 89/1/3 94/1/3
f 96/1/3 91/1/3 90/1/3
f 96/2/3 90/2/3 95/2/3
f 96/2/3 95/2/3 94/2/3
f 97/2/3 92/2/3 91/2/3
f 97/1/3 91/1/3 96/1/3
f 98/2/3 96/2/3 94/2/3
f 98/2/3 94/2/3 87/2/3
f 98/2/3 97/2/3 96/2/3
f 99/2/3 97/2/3 98/2/3
f 100/2/3 97/2/3 99/2/3
f 101/2/3 92/2/3 97/2/3
f 101/2/3 97/2/3 100/2/3
f 102/1/3 93/1/3 92/1/3
f 102/2/3 92/2/3 101/2/3
f 103/1/3 93/1/3 102/1/3
f 104/2/3 100/2/3 99/2/3
f 105/1/3 101/1/3 100/1/3
f 105/2/3 100/2/3 104/2/3
f 106/1/3 101/1/3 105/1/3
f 111/1/3 108/1/3 107/1/3
f 112/1/3 108/1/3 111/1/3
f 113/2/3 110/2/3 109/2/3
f 114/2/3 110/2/3 113/2/3
f 115/2/3 110/2/3 114/2/3
f 121/2/3 117/2/3 116/2/3
f 122/2/3 117/2/3 121/2/3
f 123/1/3 120/1/3 119/1/3
f 123/1/3 119/1/3 118/1/3
f 124/1/3 120/1/3 123/1/3
f 125/2/4 126/2/4 130/2/4
f 130/2/4 126/2/4 131/2/4
f 127/2/4 128/2/4 132/2/4
f 128/1/4 129/1/4 133/1/4
f 132/2/4 128/2/4 133/2/4
f 133/1/4 129/1/4 134/1/4
f 135/2/4 136/2/4 140/2/4
f 140/2/4 136/2/4 141/2/4
f 138/2/4 139/2/4 142/2/4
f 137/2/4 138/2/4 142/2/4
f 142/2/4 139/2/4 143/2/4
f 144/2/4 145/2/4 147/2/4
f 147/2/4 145/2/4 148/2/4
f 146/2/4 147/2/4 150/2/4
f 148/1/4 149/1/4 150/1/4
f 147/1/4 148/1/4 150/1/4
f 150/1/4 149/1/4 151/1/4
f 151/1/4 149/1/4 152/1/4
f 152/1/4 149/1/4 153/1/4
f 150/2/4 151/2/4 154/2/4
f 151/1/4 152/1/4 154/1/4
f 152/2/4 153/2/4 155/2/4
f 154/1/4 152/1/4 155/1/4
f 155/2/4 153/2/4 156/2/4
f 146/2/4 150/2/4 157/2/4
f 150/2/4 154/2/4 157/2/4
f 154/2/4 155/2/4 157/2/4
f 157/2/4 155/2/4 158/2/4
f 157/3/4 158/3/4 159/3/4
f 158/2/4 155/2/4 160/2/4
f 159/3/4 158/3/4 160/3/4
f 160/2/4 155/2/4 161/2/4
f 161/2/4 155/2/4 162/2/4
f 162/2/4 155/2/4 163/2/4
f 155/1/4 156/1/4 164/1/4
f 163/2/4 155/2/4 164/2/4
f 164/1/4 156/1/4 165/1/4
f 160/2/4 161/2/4 166/2/4
f 161/3/4 162/3/4 167/3/4
f 166/2/4 161/2/4 167/2/4
f 162/1/4 163/1/4 168/1/4
f 167/3/4 162/3/4 168/3/4
f 168/1/4 163/1/4 169/1/4
f 173/2/5 171/2/5 170/2/5
f 174/2/5 171/2/5 173/2/5
f 176/2/5 174/2/5 173/2/5
f 176/2/5 175/2/5 174/2/5
f 177/2/5 175/2/5 176/2/5
f 178/1/5 173/1/5 172/1/5
f 179/2/5 176/2/5 173/2/5
f 179/1/5 173/1/5 178/1/5
f 180/1/5 177/1/5 176/1/5
f 180/2/5 176/2/5 179/2/5
f 181/1/5 177/1/5 180/1/5
f 182/2/5 179/2/5 178/2/5
f 182/2/5 180/2/5 179/2/5
f 182/2/5 181/2/5 180/2/5
f 183/2/5 181/2/5 182/2/5
f 184/2/5 181/2/5 183/2/5
f 185/2/5 181/2/5 184/2/5
f 186/2/5 181/2/5 185/2/5
f 187/2/5 184/2/5 183/2/5
f 188/3/5 185/3/5 184/3/5
f 188/2/5 184/2/5 187/2/5
f 189/3/5 185/3/5 188/3/5
f 194/1/5 191/1/5 190/1/5
f 195/1/5 191/1/5 194/1/5
f 196/2/5 193/2/5 192/2/5
f 197/2/5 193/2/5 196/2/5
f 202/2/5 199/2/5 198/2/5
f 203/2/5 199/2/5 202/2/5
f 204/2/5 201/2/5 200/2/5
f 205/2/5 201/2/5 204/2/5
f 206/1/6 207/1/6 210/1/6
f 210/1/6 207/1/6 211/1/6
f 208/1/6 209/1/6 212/1/6
f 212/1/6 209/1/6 213/1/6
f 214/2/6 215/2/6 218/2/6
f 218/2/6 215/2/6 219/2/6
f 216/1/6 217/1/6 220/1/6
f 220/1/6 217/1/6 221/1/6
f 222/1/6 223/1/6 225/1/6
f 225/1/6 223/1/6 226/1/6
f 226/1/6 223/1/6 227/1/6
f 224/2/6 225/2/6 229/2/6
f 225/2/6 226/2/6 229/2/6
f 227/1/6 228/1/6 230/1/6
f 229/2/6 226/2/6 230/2/6
f 226/1/6 227/1/6 230/1/6
f 229/1/6 230/1/6 231/1/6
f 230/1/6 228/1/6 232/1/6
f 231/1/6 230/1/6 232/1/6
f 231/2/6 232/2/6 233/2/6
f 232/1/6 228/1/6 234/1/6
f 233/2/6 232/2/6 234/2/6
f 234/1/6 228/1/6 235/1/6
f 235/1/6 228/1/6 236/1/6
f 229/1/6 231/1/6 237/1/6
f 231/2/6 233/2/6 238/2/6
f 237/1/6 231/1/6 238/1/6
f 233/1/6 234/1/6 239/1/6
f 238/2/6 233/2/6 239/2/6
f 234/1/6 235/1/6 239/1/6
f 239/1/6 235/1/6 240/1/6
f 235/2/6 236/2/6 241/2/6
f 240/1/6 235/1/6 241/1/6
f 241/2/6 236/2/6 242/2/6
f 242/2/6 236/2/6 243/2/6
f 238/1/6 239/1/6 244/1/6
f 239/2/6 240/2/6 245/2/6
f 244/1/6 239/1/6 245/1/6
f 241/1/6 242/1/6 246/1/6
f 245/2/6 240/2/6 246/2/6
f 240/1/6 241/1/6 246/1/6
f 246/1/6 242/1/6 247/1/6
