# MagicaVoxel @ Ephtracy

# group
o 

# material
mtllib DatrsCel.mtl
usemtl palette

# normals
vn -1 0 0
vn 1 0 0
vn 0 0 1
vn 0 0 -1
vn 0 -1 0
vn 0 1 0

# texcoords
vt 0.841797 0.5
vt 0.958984 0.5
vt 0.990234 0.5
vt 0.994141 0.5

# verts
v -1.1 1.4 -1.9
v -1.1 1.4 -2
v -1.1 2.1 -1.9
v -1.1 2.1 -2
v -1 1.2 -1.9
v -1 1.2 -2
v -1 1.4 -1.9
v -1 1.4 -2
v -1 2.1 -1.9
v -1 2.1 -2
v -1 2.3 -1.9
v -1 2.3 -2
v -0.9 1 -1.9
v -0.9 1 -2
v -0.9 1.2 -1.9
v -0.9 1.2 -2
v -0.9 2.3 -1.9
v -0.9 2.3 -2
v -0.9 2.5 -1.9
v -0.9 2.5 -2
v -0.8 0.9 -1.9
v -0.8 0.9 -2
v -0.8 1 -1.9
v -0.8 1 -2
v -0.8 1.5 -1.8
v -0.8 1.5 -1.9
v -0.8 2 -1.8
v -0.8 2 -1.9
v -0.8 2.5 -1.9
v -0.8 2.5 -2
v -0.8 2.6 -1.9
v -0.8 2.6 -2
v -0.7 0.8 -1.9
v -0.7 0.8 -2
v -0.7 0.9 -1.9
v -0.7 0.9 -2
v -0.7 1.3 -1.8
v -0.7 1.3 -1.9
v -0.7 1.5 -1.8
v -0.7 1.5 -1.9
v -0.7 2 -1.8
v -0.7 2 -1.9
v -0.7 2.2 -1.8
v -0.7 2.2 -1.9
v -0.7 2.6 -1.9
v -0.7 2.6 -2
v -0.7 2.7 -1.9
v -0.7 2.7 -2
v -0.6 1.1 -1.8
v -0.6 1.1 -1.9
v -0.6 1.3 -1.8
v -0.6 1.3 -1.9
v -0.6 2.2 -1.8
v -0.6 2.2 -1.9
v -0.6 2.4 -1.8
v -0.6 2.4 -1.9
v -0.5 0.7 -1.9
v -0.5 0.7 -2
v -0.5 0.8 -1.9
v -0.5 0.8 -2
v -0.5 2.7 -1.9
v -0.5 2.7 -2
v -0.5 2.8 -1.9
v -0.5 2.8 -2
v -0.4 1 -1.8
v -0.4 1 -1.9
v -0.4 1.1 -1.8
v -0.4 1.1 -1.9
v -0.4 2.4 -1.8
v -0.4 2.4 -1.9
v -0.4 2.5 -1.8
v -0.4 2.5 -1.9
v -0.4 3.2 -1.9
v -0.4 3.2 -2
v -0.4 3.3 -1.9
v -0.4 3.3 -2
v -0.3 0.6 -1.9
v -0.3 0.6 -2
v -0.3 0.7 -1.9
v -0.3 0.7 -2
v -0.3 2.8 -1.9
v -0.3 2.8 -2
v -0.3 2.9 -1.9
v -0.3 2.9 -2
v -0.3 3.1 -1.9
v -0.3 3.1 -2
v -0.3 3.2 -1.9
v -0.3 3.2 -2
v -0.3 3.3 -1.9
v -0.3 3.3 -2
v -0.3 3.4 -1.9
v -0.3 3.4 -2
v -0.2 0.9 -1.8
v -0.2 0.9 -1.9
v -0.2 1 -1.8
v -0.2 1 -1.9
v -0.2 2.5 -1.8
v -0.2 2.5 -1.9
v -0.2 2.6 -1.8
v -0.2 2.6 -1.9
v -0.2 2.9 -1.9
v -0.2 2.9 -2
v -0.2 3.1 -1.9
v -0.2 3.1 -2
v -0.2 3.4 -1.9
v -0.2 3.4 -2
v -0.2 3.5 -1.9
v -0.2 3.5 -2
v -0.1 3.5 -1.9
v -0.1 3.5 -2
v -0.1 3.6 -1.9
v -0.1 3.6 -2
v 0 3.5 -1.9
v 0 3.5 -2
v 0 3.6 -1.9
v 0 3.6 -2
v 0.1 3.4 -1.9
v 0.1 3.4 -2
v 0.1 3.5 -1.9
v 0.1 3.5 -2
v 0.2 3.3 -1.9
v 0.2 3.3 -2
v 0.2 3.4 -1.9
v 0.2 3.4 -2
v 0.3 0.9 -1.8
v 0.3 0.9 -1.9
v 0.3 1 -1.8
v 0.3 1 -1.9
v 0.3 2.5 -1.8
v 0.3 2.5 -1.9
v 0.3 2.6 -1.8
v 0.3 2.6 -1.9
v 0.3 2.9 -1.9
v 0.3 2.9 -2
v 0.3 3 -1.9
v 0.3 3 -2
v 0.3 3.2 -1.9
v 0.3 3.2 -2
v 0.3 3.3 -1.9
v 0.3 3.3 -2
v 0.4 0.6 -1.9
v 0.4 0.6 -2
v 0.4 0.7 -1.9
v 0.4 0.7 -2
v 0.4 2.8 -1.9
v 0.4 2.8 -2
v 0.4 2.9 -1.9
v 0.4 2.9 -2
v 0.4 3 -1.9
v 0.4 3 -2
v 0.4 3.2 -1.9
v 0.4 3.2 -2
v 0.5 1 -1.8
v 0.5 1 -1.9
v 0.5 1.1 -1.8
v 0.5 1.1 -1.9
v 0.5 2.4 -1.8
v 0.5 2.4 -1.9
v 0.5 2.5 -1.8
v 0.5 2.5 -1.9
v 0.6 0.7 -1.9
v 0.6 0.7 -2
v 0.6 0.8 -1.9
v 0.6 0.8 -2
v 0.6 2.7 -1.9
v 0.6 2.7 -2
v 0.6 2.8 -1.9
v 0.6 2.8 -2
v 0.7 1.1 -1.8
v 0.7 1.1 -1.9
v 0.7 1.3 -1.8
v 0.7 1.3 -1.9
v 0.7 2.2 -1.8
v 0.7 2.2 -1.9
v 0.7 2.4 -1.8
v 0.7 2.4 -1.9
v 0.8 0.8 -1.9
v 0.8 0.8 -2
v 0.8 0.9 -1.9
v 0.8 0.9 -2
v 0.8 1.3 -1.8
v 0.8 1.3 -1.9
v 0.8 1.5 -1.8
v 0.8 1.5 -1.9
v 0.8 2 -1.8
v 0.8 2 -1.9
v 0.8 2.2 -1.8
v 0.8 2.2 -1.9
v 0.8 2.6 -1.9
v 0.8 2.6 -2
v 0.8 2.7 -1.9
v 0.8 2.7 -2
v 0.9 0.9 -1.9
v 0.9 0.9 -2
v 0.9 1 -1.9
v 0.9 1 -2
v 0.9 1.5 -1.8
v 0.9 1.5 -1.9
v 0.9 2 -1.8
v 0.9 2 -1.9
v 0.9 2.5 -1.9
v 0.9 2.5 -2
v 0.9 2.6 -1.9
v 0.9 2.6 -2
v 1 1 -1.9
v 1 1 -2
v 1 1.2 -1.9
v 1 1.2 -2
v 1 2.3 -1.9
v 1 2.3 -2
v 1 2.5 -1.9
v 1 2.5 -2
v 1.1 1.2 -1.9
v 1.1 1.2 -2
v 1.1 1.4 -1.9
v 1.1 1.4 -2
v 1.1 2.1 -1.9
v 1.1 2.1 -2
v 1.1 2.3 -1.9
v 1.1 2.3 -2
v 1.2 1.4 -1.9
v 1.2 1.4 -2
v 1.2 2.1 -1.9
v 1.2 2.1 -2
v -0.8 1.5 -1.8
v -0.8 2 -1.8
v -0.7 1.3 -1.8
v -0.7 1.5 -1.8
v -0.7 2 -1.8
v -0.7 2.2 -1.8
v -0.6 1.1 -1.8
v -0.6 1.3 -1.8
v -0.6 1.5 -1.8
v -0.6 2 -1.8
v -0.6 2.2 -1.8
v -0.6 2.4 -1.8
v -0.5 1.3 -1.8
v -0.5 1.5 -1.8
v -0.5 2 -1.8
v -0.5 2.2 -1.8
v -0.4 1 -1.8
v -0.4 1.1 -1.8
v -0.4 1.2 -1.8
v -0.4 1.3 -1.8
v -0.4 1.5 -1.8
v -0.4 2 -1.8
v -0.4 2.2 -1.8
v -0.4 2.3 -1.8
v -0.4 2.4 -1.8
v -0.4 2.5 -1.8
v -0.3 1.4 -1.8
v -0.3 1.5 -1.8
v -0.3 1.6 -1.8
v -0.3 1.9 -1.8
v -0.3 2 -1.8
v -0.3 2.1 -1.8
v -0.2 0.9 -1.8
v -0.2 1 -1.8
v -0.2 1.1 -1.8
v -0.2 1.2 -1.8
v -0.2 1.3 -1.8
v -0.2 1.4 -1.8
v -0.2 1.5 -1.8
v -0.2 1.6 -1.8
v -0.2 1.9 -1.8
v -0.2 2 -1.8
v -0.2 2.1 -1.8
v -0.2 2.2 -1.8
v -0.2 2.3 -1.8
v -0.2 2.4 -1.8
v -0.2 2.5 -1.8
v -0.2 2.6 -1.8
v -0.1 1.4 -1.8
v -0.1 1.5 -1.8
v -0.1 1.6 -1.8
v -0.1 1.9 -1.8
v -0.1 2 -1.8
v -0.1 2.1 -1.8
v 0.2 1.4 -1.8
v 0.2 1.5 -1.8
v 0.2 1.6 -1.8
v 0.2 1.9 -1.8
v 0.2 2 -1.8
v 0.2 2.1 -1.8
v 0.3 0.9 -1.8
v 0.3 1 -1.8
v 0.3 1.1 -1.8
v 0.3 1.2 -1.8
v 0.3 1.3 -1.8
v 0.3 1.4 -1.8
v 0.3 1.5 -1.8
v 0.3 1.6 -1.8
v 0.3 1.9 -1.8
v 0.3 2 -1.8
v 0.3 2.1 -1.8
v 0.3 2.2 -1.8
v 0.3 2.3 -1.8
v 0.3 2.4 -1.8
v 0.3 2.5 -1.8
v 0.3 2.6 -1.8
v 0.4 1.4 -1.8
v 0.4 1.5 -1.8
v 0.4 1.6 -1.8
v 0.4 1.9 -1.8
v 0.4 2 -1.8
v 0.4 2.1 -1.8
v 0.5 1 -1.8
v 0.5 1.1 -1.8
v 0.5 1.2 -1.8
v 0.5 1.3 -1.8
v 0.5 1.5 -1.8
v 0.5 2 -1.8
v 0.5 2.2 -1.8
v 0.5 2.3 -1.8
v 0.5 2.4 -1.8
v 0.5 2.5 -1.8
v 0.6 1.3 -1.8
v 0.6 1.5 -1.8
v 0.6 2 -1.8
v 0.6 2.2 -1.8
v 0.7 1.1 -1.8
v 0.7 1.3 -1.8
v 0.7 1.5 -1.8
v 0.7 2 -1.8
v 0.7 2.2 -1.8
v 0.7 2.4 -1.8
v 0.8 1.3 -1.8
v 0.8 1.5 -1.8
v 0.8 2 -1.8
v 0.8 2.2 -1.8
v 0.9 1.5 -1.8
v 0.9 2 -1.8
v -1.1 1.4 -1.9
v -1.1 2.1 -1.9
v -1 1.2 -1.9
v -1 1.4 -1.9
v -1 2.1 -1.9
v -1 2.3 -1.9
v -0.9 1 -1.9
v -0.9 1.2 -1.9
v -0.9 1.4 -1.9
v -0.9 2.1 -1.9
v -0.9 2.3 -1.9
v -0.9 2.5 -1.9
v -0.8 0.9 -1.9
v -0.8 1 -1.9
v -0.8 1.1 -1.9
v -0.8 1.2 -1.9
v -0.8 1.5 -1.9
v -0.8 2 -1.9
v -0.8 2.3 -1.9
v -0.8 2.4 -1.9
v -0.8 2.5 -1.9
v -0.8 2.6 -1.9
v -0.7 0.8 -1.9
v -0.7 0.9 -1.9
v -0.7 1 -1.9
v -0.7 1.1 -1.9
v -0.7 1.3 -1.9
v -0.7 1.5 -1.9
v -0.7 2 -1.9
v -0.7 2.2 -1.9
v -0.7 2.4 -1.9
v -0.7 2.5 -1.9
v -0.7 2.6 -1.9
v -0.7 2.7 -1.9
v -0.6 0.9 -1.9
v -0.6 1 -1.9
v -0.6 1.1 -1.9
v -0.6 1.3 -1.9
v -0.6 2.2 -1.9
v -0.6 2.4 -1.9
v -0.6 2.5 -1.9
v -0.6 2.6 -1.9
v -0.5 0.7 -1.9
v -0.5 0.8 -1.9
v -0.5 0.9 -1.9
v -0.5 2.6 -1.9
v -0.5 2.7 -1.9
v -0.5 2.8 -1.9
v -0.4 1 -1.9
v -0.4 1.1 -1.9
v -0.4 2.4 -1.9
v -0.4 2.5 -1.9
v -0.4 3.2 -1.9
v -0.4 3.3 -1.9
v -0.3 0.6 -1.9
v -0.3 0.7 -1.9
v -0.3 0.8 -1.9
v -0.3 2.7 -1.9
v -0.3 2.8 -1.9
v -0.3 2.9 -1.9
v -0.3 3.1 -1.9
v -0.3 3.2 -1.9
v -0.3 3.3 -1.9
v -0.3 3.4 -1.9
v -0.2 0.9 -1.9
v -0.2 1 -1.9
v -0.2 2.5 -1.9
v -0.2 2.6 -1.9
v -0.2 2.9 -1.9
v -0.2 3.1 -1.9
v -0.2 3.2 -1.9
v -0.2 3.3 -1.9
v -0.2 3.4 -1.9
v -0.2 3.5 -1.9
v -0.1 3 -1.9
v -0.1 3.1 -1.9
v -0.1 3.2 -1.9
v -0.1 3.4 -1.9
v -0.1 3.5 -1.9
v -0.1 3.6 -1.9
v 0 3.1 -1.9
v 0 3.2 -1.9
v 0 3.4 -1.9
v 0 3.5 -1.9
v 0 3.6 -1.9
v 0.1 3.3 -1.9
v 0.1 3.4 -1.9
v 0.1 3.5 -1.9
v 0.2 3.2 -1.9
v 0.2 3.3 -1.9
v 0.2 3.4 -1.9
v 0.3 0.9 -1.9
v 0.3 1 -1.9
v 0.3 2.5 -1.9
v 0.3 2.6 -1.9
v 0.3 2.9 -1.9
v 0.3 3 -1.9
v 0.3 3.2 -1.9
v 0.3 3.3 -1.9
v 0.4 0.6 -1.9
v 0.4 0.7 -1.9
v 0.4 0.8 -1.9
v 0.4 2.7 -1.9
v 0.4 2.8 -1.9
v 0.4 2.9 -1.9
v 0.4 3 -1.9
v 0.4 3.2 -1.9
v 0.5 1 -1.9
v 0.5 1.1 -1.9
v 0.5 2.4 -1.9
v 0.5 2.5 -1.9
v 0.6 0.7 -1.9
v 0.6 0.8 -1.9
v 0.6 0.9 -1.9
v 0.6 2.6 -1.9
v 0.6 2.7 -1.9
v 0.6 2.8 -1.9
v 0.7 0.9 -1.9
v 0.7 1 -1.9
v 0.7 1.1 -1.9
v 0.7 1.3 -1.9
v 0.7 2.2 -1.9
v 0.7 2.4 -1.9
v 0.7 2.5 -1.9
v 0.7 2.6 -1.9
v 0.8 0.8 -1.9
v 0.8 0.9 -1.9
v 0.8 1 -1.9
v 0.8 1.1 -1.9
v 0.8 1.3 -1.9
v 0.8 1.5 -1.9
v 0.8 2 -1.9
v 0.8 2.2 -1.9
v 0.8 2.4 -1.9
v 0.8 2.5 -1.9
v 0.8 2.6 -1.9
v 0.8 2.7 -1.9
v 0.9 0.9 -1.9
v 0.9 1 -1.9
v 0.9 1.1 -1.9
v 0.9 1.2 -1.9
v 0.9 1.5 -1.9
v 0.9 2 -1.9
v 0.9 2.3 -1.9
v 0.9 2.4 -1.9
v 0.9 2.5 -1.9
v 0.9 2.6 -1.9
v 1 1 -1.9
v 1 1.2 -1.9
v 1 1.4 -1.9
v 1 2.1 -1.9
v 1 2.3 -1.9
v 1 2.5 -1.9
v 1.1 1.2 -1.9
v 1.1 1.4 -1.9
v 1.1 2.1 -1.9
v 1.1 2.3 -1.9
v 1.2 1.4 -1.9
v 1.2 2.1 -1.9
v -1.1 1.4 -2
v -1.1 2.1 -2
v -1 1.2 -2
v -1 1.4 -2
v -1 2.1 -2
v -1 2.3 -2
v -0.9 1 -2
v -0.9 1.2 -2
v -0.9 1.4 -2
v -0.9 2.1 -2
v -0.9 2.3 -2
v -0.9 2.5 -2
v -0.8 0.9 -2
v -0.8 1 -2
v -0.8 1.1 -2
v -0.8 1.2 -2
v -0.8 2.3 -2
v -0.8 2.4 -2
v -0.8 2.5 -2
v -0.8 2.6 -2
v -0.7 0.8 -2
v -0.7 0.9 -2
v -0.7 1 -2
v -0.7 1.1 -2
v -0.7 2.4 -2
v -0.7 2.5 -2
v -0.7 2.6 -2
v -0.7 2.7 -2
v -0.6 0.9 -2
v -0.6 1 -2
v -0.6 2.5 -2
v -0.6 2.6 -2
v -0.5 0.7 -2
v -0.5 0.8 -2
v -0.5 0.9 -2
v -0.5 2.6 -2
v -0.5 2.7 -2
v -0.5 2.8 -2
v -0.4 3.2 -2
v -0.4 3.3 -2
v -0.3 0.6 -2
v -0.3 0.7 -2
v -0.3 0.8 -2
v -0.3 2.7 -2
v -0.3 2.8 -2
v -0.3 2.9 -2
v -0.3 3.1 -2
v -0.3 3.2 -2
v -0.3 3.3 -2
v -0.3 3.4 -2
v -0.2 2.9 -2
v -0.2 3.1 -2
v -0.2 3.2 -2
v -0.2 3.3 -2
v -0.2 3.4 -2
v -0.2 3.5 -2
v -0.1 3 -2
v -0.1 3.1 -2
v -0.1 3.2 -2
v -0.1 3.4 -2
v -0.1 3.5 -2
v -0.1 3.6 -2
v 0 3.1 -2
v 0 3.2 -2
v 0 3.4 -2
v 0 3.5 -2
v 0 3.6 -2
v 0.1 3.3 -2
v 0.1 3.4 -2
v 0.1 3.5 -2
v 0.2 3.2 -2
v 0.2 3.3 -2
v 0.2 3.4 -2
v 0.3 2.9 -2
v 0.3 3 -2
v 0.3 3.2 -2
v 0.3 3.3 -2
v 0.4 0.6 -2
v 0.4 0.7 -2
v 0.4 0.8 -2
v 0.4 2.7 -2
v 0.4 2.8 -2
v 0.4 2.9 -2
v 0.4 3 -2
v 0.4 3.2 -2
v 0.6 0.7 -2
v 0.6 0.8 -2
v 0.6 0.9 -2
v 0.6 2.6 -2
v 0.6 2.7 -2
v 0.6 2.8 -2
v 0.7 0.9 -2
v 0.7 1 -2
v 0.7 2.5 -2
v 0.7 2.6 -2
v 0.8 0.8 -2
v 0.8 0.9 -2
v 0.8 1 -2
v 0.8 1.1 -2
v 0.8 2.4 -2
v 0.8 2.5 -2
v 0.8 2.6 -2
v 0.8 2.7 -2
v 0.9 0.9 -2
v 0.9 1 -2
v 0.9 1.1 -2
v 0.9 1.2 -2
v 0.9 2.3 -2
v 0.9 2.4 -2
v 0.9 2.5 -2
v 0.9 2.6 -2
v 1 1 -2
v 1 1.2 -2
v 1 1.4 -2
v 1 2.1 -2
v 1 2.3 -2
v 1 2.5 -2
v 1.1 1.2 -2
v 1.1 1.4 -2
v 1.1 2.1 -2
v 1.1 2.3 -2
v 1.2 1.4 -2
v 1.2 2.1 -2
v -0.3 0.6 -1.9
v 0.4 0.6 -1.9
v -0.3 0.6 -2
v 0.4 0.6 -2
v -0.5 0.7 -1.9
v -0.3 0.7 -1.9
v 0.4 0.7 -1.9
v 0.6 0.7 -1.9
v -0.5 0.7 -2
v -0.3 0.7 -2
v 0.4 0.7 -2
v 0.6 0.7 -2
v -0.7 0.8 -1.9
v -0.5 0.8 -1.9
v 0.6 0.8 -1.9
v 0.8 0.8 -1.9
v -0.7 0.8 -2
v -0.5 0.8 -2
v 0.6 0.8 -2
v 0.8 0.8 -2
v -0.2 0.9 -1.8
v 0.3 0.9 -1.8
v -0.8 0.9 -1.9
v -0.7 0.9 -1.9
v -0.2 0.9 -1.9
v 0.3 0.9 -1.9
v 0.8 0.9 -1.9
v 0.9 0.9 -1.9
v -0.8 0.9 -2
v -0.7 0.9 -2
v 0.8 0.9 -2
v 0.9 0.9 -2
v -0.4 1 -1.8
v -0.2 1 -1.8
v 0.3 1 -1.8
v 0.5 1 -1.8
v -0.9 1 -1.9
v -0.8 1 -1.9
v -0.4 1 -1.9
v -0.2 1 -1.9
v 0.3 1 -1.9
v 0.5 1 -1.9
v 0.9 1 -1.9
v 1 1 -1.9
v -0.9 1 -2
v -0.8 1 -2
v 0.9 1 -2
v 1 1 -2
v -0.6 1.1 -1.8
v -0.4 1.1 -1.8
v 0.5 1.1 -1.8
v 0.7 1.1 -1.8
v -0.6 1.1 -1.9
v -0.4 1.1 -1.9
v 0.5 1.1 -1.9
v 0.7 1.1 -1.9
v -1 1.2 -1.9
v -0.9 1.2 -1.9
v 1 1.2 -1.9
v 1.1 1.2 -1.9
v -1 1.2 -2
v -0.9 1.2 -2
v 1 1.2 -2
v 1.1 1.2 -2
v -0.7 1.3 -1.8
v -0.6 1.3 -1.8
v 0.7 1.3 -1.8
v 0.8 1.3 -1.8
v -0.7 1.3 -1.9
v -0.6 1.3 -1.9
v 0.7 1.3 -1.9
v 0.8 1.3 -1.9
v -1.1 1.4 -1.9
v -1 1.4 -1.9
v 1.1 1.4 -1.9
v 1.2 1.4 -1.9
v -1.1 1.4 -2
v -1 1.4 -2
v 1.1 1.4 -2
v 1.2 1.4 -2
v -0.8 1.5 -1.8
v -0.7 1.5 -1.8
v 0.8 1.5 -1.8
v 0.9 1.5 -1.8
v -0.8 1.5 -1.9
v -0.7 1.5 -1.9
v 0.8 1.5 -1.9
v 0.9 1.5 -1.9
v 0.3 3 -1.9
v 0.4 3 -1.9
v 0.3 3 -2
v 0.4 3 -2
v -0.3 3.1 -1.9
v -0.2 3.1 -1.9
v -0.3 3.1 -2
v -0.2 3.1 -2
v -0.4 3.2 -1.9
v -0.3 3.2 -1.9
v -0.4 3.2 -2
v -0.3 3.2 -2
v -0.8 2 -1.8
v -0.7 2 -1.8
v 0.8 2 -1.8
v 0.9 2 -1.8
v -0.8 2 -1.9
v -0.7 2 -1.9
v 0.8 2 -1.9
v 0.9 2 -1.9
v -1.1 2.1 -1.9
v -1 2.1 -1.9
v 1.1 2.1 -1.9
v 1.2 2.1 -1.9
v -1.1 2.1 -2
v -1 2.1 -2
v 1.1 2.1 -2
v 1.2 2.1 -2
v -0.7 2.2 -1.8
v -0.6 2.2 -1.8
v 0.7 2.2 -1.8
v 0.8 2.2 -1.8
v -0.7 2.2 -1.9
v -0.6 2.2 -1.9
v 0.7 2.2 -1.9
v 0.8 2.2 -1.9
v -1 2.3 -1.9
v -0.9 2.3 -1.9
v 1 2.3 -1.9
v 1.1 2.3 -1.9
v -1 2.3 -2
v -0.9 2.3 -2
v 1 2.3 -2
v 1.1 2.3 -2
v -0.6 2.4 -1.8
v -0.4 2.4 -1.8
v 0.5 2.4 -1.8
v 0.7 2.4 -1.8
v -0.6 2.4 -1.9
v -0.4 2.4 -1.9
v 0.5 2.4 -1.9
v 0.7 2.4 -1.9
v -0.4 2.5 -1.8
v -0.2 2.5 -1.8
v 0.3 2.5 -1.8
v 0.5 2.5 -1.8
v -0.9 2.5 -1.9
v -0.8 2.5 -1.9
v -0.4 2.5 -1.9
v -0.2 2.5 -1.9
v 0.3 2.5 -1.9
v 0.5 2.5 -1.9
v 0.9 2.5 -1.9
v 1 2.5 -1.9
v -0.9 2.5 -2
v -0.8 2.5 -2
v 0.9 2.5 -2
v 1 2.5 -2
v -0.2 2.6 -1.8
v 0.3 2.6 -1.8
v -0.8 2.6 -1.9
v -0.7 2.6 -1.9
v -0.2 2.6 -1.9
v 0.3 2.6 -1.9
v 0.8 2.6 -1.9
v 0.9 2.6 -1.9
v -0.8 2.6 -2
v -0.7 2.6 -2
v 0.8 2.6 -2
v 0.9 2.6 -2
v -0.7 2.7 -1.9
v -0.5 2.7 -1.9
v 0.6 2.7 -1.9
v 0.8 2.7 -1.9
v -0.7 2.7 -2
v -0.5 2.7 -2
v 0.6 2.7 -2
v 0.8 2.7 -2
v -0.5 2.8 -1.9
v -0.3 2.8 -1.9
v 0.4 2.8 -1.9
v 0.6 2.8 -1.9
v -0.5 2.8 -2
v -0.3 2.8 -2
v 0.4 2.8 -2
v 0.6 2.8 -2
v -0.3 2.9 -1.9
v -0.2 2.9 -1.9
v 0.3 2.9 -1.9
v 0.4 2.9 -1.9
v -0.3 2.9 -2
v -0.2 2.9 -2
v 0.3 2.9 -2
v 0.4 2.9 -2
v 0.3 3.2 -1.9
v 0.4 3.2 -1.9
v 0.3 3.2 -2
v 0.4 3.2 -2
v -0.4 3.3 -1.9
v -0.3 3.3 -1.9
v 0.2 3.3 -1.9
v 0.3 3.3 -1.9
v -0.4 3.3 -2
v -0.3 3.3 -2
v 0.2 3.3 -2
v 0.3 3.3 -2
v -0.3 3.4 -1.9
v -0.2 3.4 -1.9
v 0.1 3.4 -1.9
v 0.2 3.4 -1.9
v -0.3 3.4 -2
v -0.2 3.4 -2
v 0.1 3.4 -2
v 0.2 3.4 -2
v -0.2 3.5 -1.9
v -0.1 3.5 -1.9
v 0 3.5 -1.9
v 0.1 3.5 -1.9
v -0.2 3.5 -2
v -0.1 3.5 -2
v 0 3.5 -2
v 0.1 3.5 -2
v -0.1 3.6 -1.9
v 0 3.6 -1.9
v -0.1 3.6 -2
v 0 3.6 -2

# faces
f 3/1/1 2/1/1 1/1/1
f 4/1/1 2/1/1 3/1/1
f 7/1/1 6/1/1 5/1/1
f 8/1/1 6/1/1 7/1/1
f 11/1/1 10/1/1 9/1/1
f 12/1/1 10/1/1 11/1/1
f 15/1/1 14/1/1 13/1/1
f 16/1/1 14/1/1 15/1/1
f 19/1/1 18/1/1 17/1/1
f 20/1/1 18/1/1 19/1/1
f 23/1/1 22/1/1 21/1/1
f 24/1/1 22/1/1 23/1/1
f 27/1/1 26/1/1 25/1/1
f 28/1/1 26/1/1 27/1/1
f 31/1/1 30/1/1 29/1/1
f 32/1/1 30/1/1 31/1/1
f 35/1/1 34/1/1 33/1/1
f 36/1/1 34/1/1 35/1/1
f 39/1/1 38/1/1 37/1/1
f 40/1/1 38/1/1 39/1/1
f 43/1/1 42/1/1 41/1/1
f 44/1/1 42/1/1 43/1/1
f 47/1/1 46/1/1 45/1/1
f 48/1/1 46/1/1 47/1/1
f 51/1/1 50/1/1 49/1/1
f 52/1/1 50/1/1 51/1/1
f 55/1/1 54/1/1 53/1/1
f 56/1/1 54/1/1 55/1/1
f 59/1/1 58/1/1 57/1/1
f 60/1/1 58/1/1 59/1/1
f 63/1/1 62/1/1 61/1/1
f 64/1/1 62/1/1 63/1/1
f 67/1/1 66/1/1 65/1/1
f 68/1/1 66/1/1 67/1/1
f 71/1/1 70/1/1 69/1/1
f 72/1/1 70/1/1 71/1/1
f 75/3/1 74/3/1 73/3/1
f 76/3/1 74/3/1 75/3/1
f 79/1/1 78/1/1 77/1/1
f 80/1/1 78/1/1 79/1/1
f 83/1/1 82/1/1 81/1/1
f 84/1/1 82/1/1 83/1/1
f 87/3/1 86/3/1 85/3/1
f 88/3/1 86/3/1 87/3/1
f 91/3/1 90/3/1 89/3/1
f 92/3/1 90/3/1 91/3/1
f 95/1/1 94/1/1 93/1/1
f 96/1/1 94/1/1 95/1/1
f 99/1/1 98/1/1 97/1/1
f 100/1/1 98/1/1 99/1/1
f 103/3/1 102/3/1 101/3/1
f 104/3/1 102/3/1 103/3/1
f 107/3/1 106/3/1 105/3/1
f 108/3/1 106/3/1 107/3/1
f 111/3/1 110/3/1 109/3/1
f 112/3/1 110/3/1 111/3/1
f 113/3/2 114/3/2 115/3/2
f 115/3/2 114/3/2 116/3/2
f 117/3/2 118/3/2 119/3/2
f 119/3/2 118/3/2 120/3/2
f 121/3/2 122/3/2 123/3/2
f 123/3/2 122/3/2 124/3/2
f 125/1/2 126/1/2 127/1/2
f 127/1/2 126/1/2 128/1/2
f 129/1/2 130/1/2 131/1/2
f 131/1/2 130/1/2 132/1/2
f 133/3/2 134/3/2 135/3/2
f 135/3/2 134/3/2 136/3/2
f 137/3/2 138/3/2 139/3/2
f 139/3/2 138/3/2 140/3/2
f 141/1/2 142/1/2 143/1/2
f 143/1/2 142/1/2 144/1/2
f 145/1/2 146/1/2 147/1/2
f 147/1/2 146/1/2 148/1/2
f 149/3/2 150/3/2 151/3/2
f 151/3/2 150/3/2 152/3/2
f 153/1/2 154/1/2 155/1/2
f 155/1/2 154/1/2 156/1/2
f 157/1/2 158/1/2 159/1/2
f 159/1/2 158/1/2 160/1/2
f 161/1/2 162/1/2 163/1/2
f 163/1/2 162/1/2 164/1/2
f 165/1/2 166/1/2 167/1/2
f 167/1/2 166/1/2 168/1/2
f 169/1/2 170/1/2 171/1/2
f 171/1/2 170/1/2 172/1/2
f 173/1/2 174/1/2 175/1/2
f 175/1/2 174/1/2 176/1/2
f 177/1/2 178/1/2 179/1/2
f 179/1/2 178/1/2 180/1/2
f 181/1/2 182/1/2 183/1/2
f 183/1/2 182/1/2 184/1/2
f 185/1/2 186/1/2 187/1/2
f 187/1/2 186/1/2 188/1/2
f 189/1/2 190/1/2 191/1/2
f 191/1/2 190/1/2 192/1/2
f 193/1/2 194/1/2 195/1/2
f 195/1/2 194/1/2 196/1/2
f 197/1/2 198/1/2 199/1/2
f 199/1/2 198/1/2 200/1/2
f 201/1/2 202/1/2 203/1/2
f 203/1/2 202/1/2 204/1/2
f 205/1/2 206/1/2 207/1/2
f 207/1/2 206/1/2 208/1/2
f 209/1/2 210/1/2 211/1/2
f 211/1/2 210/1/2 212/1/2
f 213/1/2 214/1/2 215/1/2
f 215/1/2 214/1/2 216/1/2
f 217/1/2 218/1/2 219/1/2
f 219/1/2 218/1/2 220/1/2
f 221/1/2 222/1/2 223/1/2
f 223/1/2 222/1/2 224/1/2
f 228/1/3 226/1/3 225/1/3
f 229/1/3 226/1/3 228/1/3
f 232/1/3 228/1/3 227/1/3
f 232/1/3 230/1/3 229/1/3
f 232/1/3 229/1/3 228/1/3
f 233/1/3 230/1/3 232/1/3
f 234/1/3 230/1/3 233/1/3
f 235/1/3 230/1/3 234/1/3
f 237/1/3 232/1/3 231/1/3
f 237/1/3 233/1/3 232/1/3
f 238/2/3 234/2/3 233/2/3
f 238/1/3 233/1/3 237/1/3
f 239/1/3 236/1/3 235/1/3
f 239/2/3 234/2/3 238/2/3
f 239/1/3 235/1/3 234/1/3
f 240/1/3 236/1/3 239/1/3
f 242/1/3 237/1/3 231/1/3
f 243/1/3 237/1/3 242/1/3
f 244/2/3 238/2/3 237/2/3
f 244/1/3 237/1/3 243/1/3
f 244/2/3 239/2/3 238/2/3
f 244/2/3 240/2/3 239/2/3
f 245/2/3 240/2/3 244/2/3
f 246/2/3 240/2/3 245/2/3
f 247/1/3 236/1/3 240/1/3
f 247/2/3 240/2/3 246/2/3
f 248/1/3 236/1/3 247/1/3
f 249/1/3 236/1/3 248/1/3
f 251/2/3 244/2/3 243/2/3
f 251/2/3 245/2/3 244/2/3
f 252/1/3 246/1/3 245/1/3
f 252/2/3 245/2/3 251/2/3
f 253/1/3 246/1/3 252/1/3
f 254/1/3 246/1/3 253/1/3
f 255/2/3 247/2/3 246/2/3
f 255/1/3 246/1/3 254/1/3
f 255/2/3 248/2/3 247/2/3
f 256/2/3 248/2/3 255/2/3
f 258/1/3 243/1/3 242/1/3
f 258/1/3 242/1/3 241/1/3
f 259/1/3 243/1/3 258/1/3
f 260/2/3 251/2/3 243/2/3
f 260/1/3 243/1/3 259/1/3
f 261/2/3 251/2/3 260/2/3
f 262/1/3 253/1/3 252/1/3
f 262/2/3 251/2/3 261/2/3
f 262/1/3 252/1/3 251/1/3
f 263/1/3 253/1/3 262/1/3
f 264/2/3 254/2/3 253/2/3
f 264/1/3 253/1/3 263/1/3
f 265/1/3 256/1/3 255/1/3
f 265/2/3 254/2/3 264/2/3
f 265/1/3 255/1/3 254/1/3
f 266/1/3 256/1/3 265/1/3
f 267/2/3 248/2/3 256/2/3
f 267/1/3 256/1/3 266/1/3
f 268/2/3 248/2/3 267/2/3
f 269/1/3 250/1/3 249/1/3
f 269/2/3 248/2/3 268/2/3
f 269/1/3 249/1/3 248/1/3
f 270/1/3 250/1/3 269/1/3
f 271/1/3 250/1/3 270/1/3
f 273/1/3 263/1/3 262/1/3
f 273/1/3 262/1/3 261/1/3
f 274/2/3 266/2/3 265/2/3
f 274/1/3 263/1/3 273/1/3
f 274/2/3 264/2/3 263/2/3
f 274/2/3 265/2/3 264/2/3
f 275/2/3 266/2/3 274/2/3
f 276/2/3 266/2/3 275/2/3
f 277/1/3 268/1/3 267/1/3
f 277/2/3 266/2/3 276/2/3
f 277/1/3 267/1/3 266/1/3
f 278/1/3 268/1/3 277/1/3
f 279/1/3 273/1/3 261/1/3
f 279/2/3 275/2/3 274/2/3
f 279/2/3 274/2/3 273/2/3
f 280/2/3 275/2/3 279/2/3
f 281/4/3 276/4/3 275/4/3
f 281/2/3 275/2/3 280/2/3
f 282/2/3 278/2/3 277/2/3
f 282/4/3 276/4/3 281/4/3
f 282/2/3 277/2/3 276/2/3
f 283/2/3 278/2/3 282/2/3
f 284/1/3 268/1/3 278/1/3
f 284/2/3 278/2/3 283/2/3
f 285/1/3 259/1/3 258/1/3
f 285/1/3 258/1/3 257/1/3
f 286/1/3 259/1/3 285/1/3
f 287/2/3 261/2/3 260/2/3
f 287/1/3 259/1/3 286/1/3
f 287/2/3 260/2/3 259/2/3
f 288/2/3 261/2/3 287/2/3
f 289/1/3 280/1/3 279/1/3
f 289/2/3 261/2/3 288/2/3
f 289/1/3 279/1/3 261/1/3
f 290/1/3 280/1/3 289/1/3
f 291/2/3 283/2/3 282/2/3
f 291/1/3 280/1/3 290/1/3
f 291/2/3 281/2/3 280/2/3
f 291/2/3 282/2/3 281/2/3
f 292/2/3 283/2/3 291/2/3
f 293/2/3 283/2/3 292/2/3
f 294/1/3 284/1/3 283/1/3
f 294/2/3 283/2/3 293/2/3
f 295/1/3 268/1/3 284/1/3
f 295/1/3 284/1/3 294/1/3
f 296/2/3 270/2/3 269/2/3
f 296/1/3 268/1/3 295/1/3
f 296/2/3 269/2/3 268/2/3
f 297/2/3 270/2/3 296/2/3
f 298/1/3 272/1/3 271/1/3
f 298/2/3 270/2/3 297/2/3
f 298/1/3 271/1/3 270/1/3
f 299/1/3 272/1/3 298/1/3
f 300/1/3 272/1/3 299/1/3
f 301/2/3 290/2/3 289/2/3
f 301/2/3 289/2/3 288/2/3
f 301/1/3 292/1/3 291/1/3
f 301/1/3 291/1/3 290/1/3
f 302/1/3 292/1/3 301/1/3
f 303/2/3 293/2/3 292/2/3
f 303/1/3 292/1/3 302/1/3
f 304/1/3 294/1/3 293/1/3
f 304/2/3 293/2/3 303/2/3
f 304/1/3 295/1/3 294/1/3
f 305/1/3 295/1/3 304/1/3
f 306/2/3 297/2/3 296/2/3
f 306/1/3 295/1/3 305/1/3
f 306/2/3 296/2/3 295/2/3
f 307/1/3 288/1/3 287/1/3
f 307/1/3 287/1/3 286/1/3
f 308/1/3 288/1/3 307/1/3
f 309/2/3 301/2/3 288/2/3
f 309/1/3 288/1/3 308/1/3
f 309/2/3 302/2/3 301/2/3
f 310/2/3 302/2/3 309/2/3
f 311/1/3 303/1/3 302/1/3
f 311/2/3 302/2/3 310/2/3
f 311/1/3 305/1/3 304/1/3
f 311/1/3 304/1/3 303/1/3
f 312/2/3 306/2/3 305/2/3
f 312/1/3 305/1/3 311/1/3
f 313/2/3 297/2/3 306/2/3
f 313/2/3 306/2/3 312/2/3
f 314/1/3 299/1/3 298/1/3
f 314/2/3 297/2/3 313/2/3
f 314/1/3 298/1/3 297/1/3
f 315/1/3 299/1/3 314/1/3
f 316/1/3 299/1/3 315/1/3
f 317/1/3 310/1/3 309/1/3
f 317/2/3 312/2/3 311/2/3
f 317/2/3 313/2/3 312/2/3
f 317/1/3 309/1/3 308/1/3
f 317/2/3 311/2/3 310/2/3
f 318/2/3 313/2/3 317/2/3
f 319/2/3 313/2/3 318/2/3
f 320/1/3 315/1/3 314/1/3
f 320/2/3 313/2/3 319/2/3
f 320/1/3 314/1/3 313/1/3
f 321/1/3 318/1/3 317/1/3
f 321/1/3 317/1/3 308/1/3
f 322/1/3 318/1/3 321/1/3
f 323/2/3 319/2/3 318/2/3
f 323/1/3 318/1/3 322/1/3
f 324/1/3 320/1/3 319/1/3
f 324/2/3 319/2/3 323/2/3
f 325/1/3 315/1/3 320/1/3
f 325/1/3 320/1/3 324/1/3
f 326/1/3 315/1/3 325/1/3
f 327/1/3 324/1/3 323/1/3
f 327/1/3 325/1/3 324/1/3
f 327/1/3 323/1/3 322/1/3
f 328/1/3 325/1/3 327/1/3
f 329/1/3 325/1/3 328/1/3
f 330/1/3 325/1/3 329/1/3
f 331/1/3 329/1/3 328/1/3
f 332/1/3 329/1/3 331/1/3
f 336/1/3 334/1/3 333/1/3
f 337/1/3 334/1/3 336/1/3
f 340/1/3 336/1/3 335/1/3
f 341/2/3 337/2/3 336/2/3
f 341/1/3 336/1/3 340/1/3
f 342/1/3 338/1/3 337/1/3
f 342/2/3 337/2/3 341/2/3
f 343/1/3 338/1/3 342/1/3
f 346/1/3 340/1/3 339/1/3
f 347/1/3 340/1/3 346/1/3
f 348/2/3 341/2/3 340/2/3
f 348/1/3 340/1/3 347/1/3
f 348/2/3 342/2/3 341/2/3
f 348/2/3 343/2/3 342/2/3
f 349/2/3 343/2/3 348/2/3
f 350/2/3 343/2/3 349/2/3
f 351/1/3 344/1/3 343/1/3
f 351/2/3 343/2/3 350/2/3
f 352/1/3 344/1/3 351/1/3
f 353/1/3 344/1/3 352/1/3
f 356/1/3 347/1/3 346/1/3
f 356/1/3 346/1/3 345/1/3
f 357/1/3 347/1/3 356/1/3
f 358/2/3 348/2/3 347/2/3
f 358/1/3 347/1/3 357/1/3
f 358/2/3 349/2/3 348/2/3
f 359/2/3 349/2/3 358/2/3
f 360/2/3 349/2/3 359/2/3
f 361/2/3 352/2/3 351/2/3
f 361/2/3 351/2/3 350/2/3
f 362/2/3 352/2/3 361/2/3
f 363/1/3 353/1/3 352/1/3
f 363/2/3 352/2/3 362/2/3
f 363/1/3 354/1/3 353/1/3
f 364/1/3 354/1/3 363/1/3
f 365/1/3 354/1/3 364/1/3
f 367/1/3 357/1/3 356/1/3
f 367/1/3 356/1/3 355/1/3
f 368/2/3 359/2/3 358/2/3
f 368/1/3 357/1/3 367/1/3
f 368/2/3 358/2/3 357/2/3
f 369/2/3 359/2/3 368/2/3
f 370/2/3 359/2/3 369/2/3
f 371/2/3 364/2/3 363/2/3
f 371/2/3 363/2/3 362/2/3
f 372/2/3 364/2/3 371/2/3
f 373/1/3 366/1/3 365/1/3
f 373/2/3 364/2/3 372/2/3
f 373/1/3 365/1/3 364/1/3
f 374/1/3 366/1/3 373/1/3
f 376/1/3 367/1/3 355/1/3
f 377/2/3 369/2/3 368/2/3
f 377/2/3 368/2/3 367/2/3
f 377/1/3 367/1/3 376/1/3
f 378/1/3 366/1/3 374/1/3
f 378/2/3 374/2/3 373/2/3
f 378/2/3 373/2/3 372/2/3
f 379/1/3 366/1/3 378/1/3
f 381/2/3 369/2/3 377/2/3
f 381/2/3 377/2/3 376/2/3
f 382/2/3 369/2/3 381/2/3
f 383/2/3 379/2/3 378/2/3
f 383/2/3 378/2/3 372/2/3
f 384/2/3 379/2/3 383/2/3
f 388/1/3 376/1/3 375/1/3
f 389/2/3 381/2/3 376/2/3
f 389/1/3 376/1/3 388/1/3
f 390/1/3 380/1/3 379/1/3
f 390/2/3 379/2/3 384/2/3
f 391/1/3 380/1/3 390/1/3
f 394/3/3 386/3/3 385/3/3
f 395/3/3 386/3/3 394/3/3
f 397/2/3 381/2/3 389/2/3
f 397/2/3 389/2/3 388/2/3
f 398/2/3 381/2/3 397/2/3
f 399/2/3 390/2/3 384/2/3
f 399/2/3 391/2/3 390/2/3
f 400/2/3 391/2/3 399/2/3
f 401/1/3 392/1/3 391/1/3
f 402/3/3 394/3/3 393/3/3
f 403/4/3 395/4/3 394/4/3
f 403/3/3 394/3/3 402/3/3
f 404/3/3 396/3/3 395/3/3
f 404/4/3 395/4/3 403/4/3
f 405/3/3 396/3/3 404/3/3
f 407/3/3 402/3/3 401/3/3
f 408/4/3 403/4/3 402/4/3
f 408/3/3 402/3/3 407/3/3
f 408/4/3 405/4/3 404/4/3
f 408/4/3 404/4/3 403/4/3
f 409/4/3 405/4/3 408/4/3
f 410/3/3 406/3/3 405/3/3
f 410/4/3 405/4/3 409/4/3
f 411/3/3 406/3/3 410/3/3
f 413/3/3 409/3/3 408/3/3
f 413/4/3 408/4/3 407/4/3
f 414/4/3 411/4/3 410/4/3
f 414/3/3 409/3/3 413/3/3
f 414/4/3 410/4/3 409/4/3
f 415/4/3 411/4/3 414/4/3
f 416/3/3 412/3/3 411/3/3
f 416/4/3 411/4/3 415/4/3
f 417/3/3 412/3/3 416/3/3
f 418/4/3 415/4/3 414/4/3
f 418/4/3 414/4/3 413/4/3
f 419/3/3 416/3/3 415/3/3
f 419/4/3 415/4/3 418/4/3
f 420/3/3 416/3/3 419/3/3
f 421/4/3 418/4/3 413/4/3
f 422/3/3 419/3/3 418/3/3
f 422/4/3 418/4/3 421/4/3
f 423/3/3 419/3/3 422/3/3
f 424/2/3 397/2/3 388/2/3
f 427/2/3 391/2/3 400/2/3
f 428/3/3 407/3/3 401/3/3
f 428/1/3 401/1/3 391/1/3
f 429/4/3 413/4/3 407/4/3
f 429/3/3 407/3/3 428/3/3
f 429/4/3 421/4/3 413/4/3
f 430/3/3 422/3/3 421/3/3
f 430/4/3 421/4/3 429/4/3
f 431/3/3 422/3/3 430/3/3
f 432/1/3 388/1/3 387/1/3
f 433/2/3 425/2/3 424/2/3
f 433/1/3 388/1/3 432/1/3
f 433/2/3 424/2/3 388/2/3
f 434/2/3 425/2/3 433/2/3
f 435/2/3 427/2/3 426/2/3
f 435/2/3 391/2/3 427/2/3
f 436/1/3 428/1/3 391/1/3
f 436/2/3 391/2/3 435/2/3
f 437/1/3 428/1/3 436/1/3
f 438/3/3 430/3/3 429/3/3
f 439/3/3 430/3/3 438/3/3
f 440/2/3 425/2/3 434/2/3
f 443/2/3 435/2/3 426/2/3
f 444/1/3 434/1/3 433/1/3
f 445/2/3 441/2/3 440/2/3
f 445/1/3 434/1/3 444/1/3
f 445/2/3 440/2/3 434/2/3
f 446/2/3 441/2/3 445/2/3
f 447/2/3 443/2/3 442/2/3
f 447/2/3 435/2/3 443/2/3
f 448/1/3 436/1/3 435/1/3
f 448/2/3 435/2/3 447/2/3
f 449/1/3 436/1/3 448/1/3
f 450/2/3 441/2/3 446/2/3
f 450/1/3 446/1/3 445/1/3
f 451/2/3 441/2/3 450/2/3
f 452/2/3 441/2/3 451/2/3
f 455/2/3 447/2/3 442/2/3
f 456/2/3 447/2/3 455/2/3
f 457/1/3 448/1/3 447/1/3
f 457/2/3 447/2/3 456/2/3
f 458/1/3 450/1/3 445/1/3
f 458/1/3 451/1/3 450/1/3
f 459/1/3 451/1/3 458/1/3
f 460/2/3 453/2/3 452/2/3
f 460/1/3 451/1/3 459/1/3
f 460/2/3 452/2/3 451/2/3
f 461/2/3 453/2/3 460/2/3
f 462/2/3 453/2/3 461/2/3
f 465/2/3 456/2/3 455/2/3
f 465/2/3 455/2/3 454/2/3
f 466/2/3 456/2/3 465/2/3
f 467/1/3 457/1/3 456/1/3
f 467/2/3 456/2/3 466/2/3
f 468/1/3 448/1/3 457/1/3
f 468/1/3 457/1/3 467/1/3
f 469/1/3 448/1/3 468/1/3
f 470/1/3 460/1/3 459/1/3
f 470/1/3 461/1/3 460/1/3
f 471/1/3 461/1/3 470/1/3
f 472/2/3 463/2/3 462/2/3
f 472/1/3 461/1/3 471/1/3
f 472/2/3 462/2/3 461/2/3
f 473/2/3 463/2/3 472/2/3
f 474/2/3 463/2/3 473/2/3
f 475/2/3 466/2/3 465/2/3
f 475/2/3 465/2/3 464/2/3
f 476/2/3 466/2/3 475/2/3
f 477/1/3 467/1/3 466/1/3
f 477/2/3 466/2/3 476/2/3
f 477/1/3 468/1/3 467/1/3
f 478/1/3 468/1/3 477/1/3
f 479/1/3 468/1/3 478/1/3
f 480/1/3 473/1/3 472/1/3
f 480/1/3 472/1/3 471/1/3
f 481/2/3 476/2/3 475/2/3
f 481/1/3 473/1/3 480/1/3
f 481/2/3 474/2/3 473/2/3
f 481/2/3 475/2/3 474/2/3
f 482/2/3 476/2/3 481/2/3
f 483/2/3 476/2/3 482/2/3
f 484/1/3 477/1/3 476/1/3
f 484/2/3 476/2/3 483/2/3
f 484/1/3 478/1/3 477/1/3
f 485/1/3 478/1/3 484/1/3
f 486/1/3 482/1/3 481/1/3
f 487/2/3 483/2/3 482/2/3
f 487/1/3 482/1/3 486/1/3
f 488/1/3 484/1/3 483/1/3
f 488/2/3 483/2/3 487/2/3
f 489/1/3 484/1/3 488/1/3
f 490/1/3 488/1/3 487/1/3
f 491/1/3 488/1/3 490/1/3
f 492/1/4 493/1/4 495/1/4
f 495/1/4 493/1/4 496/1/4
f 494/1/4 495/1/4 499/1/4
f 495/2/4 496/2/4 500/2/4
f 499/1/4 495/1/4 500/1/4
f 496/1/4 497/1/4 501/1/4
f 500/2/4 496/2/4 501/2/4
f 501/1/4 497/1/4 502/1/4
f 498/1/4 499/1/4 505/1/4
f 505/1/4 499/1/4 506/1/4
f 499/2/4 500/2/4 507/2/4
f 506/1/4 499/1/4 507/1/4
f 500/2/4 501/2/4 507/2/4
f 501/2/4 502/2/4 507/2/4
f 502/1/4 503/1/4 508/1/4
f 507/2/4 502/2/4 508/2/4
f 508/1/4 503/1/4 509/1/4
f 509/1/4 503/1/4 510/1/4
f 505/1/4 506/1/4 513/1/4
f 504/1/4 505/1/4 513/1/4
f 513/1/4 506/1/4 514/1/4
f 506/2/4 507/2/4 515/2/4
f 514/1/4 506/1/4 515/1/4
f 507/2/4 508/2/4 515/2/4
f 508/2/4 509/2/4 515/2/4
f 510/1/4 511/1/4 516/1/4
f 515/2/4 509/2/4 516/2/4
f 509/1/4 510/1/4 516/1/4
f 516/1/4 511/1/4 517/1/4
f 517/1/4 511/1/4 518/1/4
f 513/1/4 514/1/4 520/1/4
f 512/1/4 513/1/4 520/1/4
f 514/2/4 515/2/4 521/2/4
f 520/1/4 514/1/4 521/1/4
f 515/2/4 516/2/4 521/2/4
f 516/2/4 517/2/4 521/2/4
f 518/1/4 519/1/4 522/1/4
f 521/2/4 517/2/4 522/2/4
f 517/1/4 518/1/4 522/1/4
f 522/1/4 519/1/4 523/1/4
f 512/1/4 520/1/4 525/1/4
f 520/2/4 521/2/4 526/2/4
f 521/2/4 522/2/4 526/2/4
f 525/1/4 520/1/4 526/1/4
f 522/2/4 523/2/4 526/2/4
f 523/1/4 519/1/4 527/1/4
f 526/2/4 523/2/4 527/2/4
f 527/1/4 519/1/4 528/1/4
f 524/1/4 525/1/4 533/1/4
f 525/2/4 526/2/4 534/2/4
f 526/2/4 527/2/4 534/2/4
f 533/1/4 525/1/4 534/1/4
f 527/2/4 528/2/4 534/2/4
f 528/1/4 529/1/4 535/1/4
f 534/2/4 528/2/4 535/2/4
f 535/1/4 529/1/4 536/1/4
f 530/3/4 531/3/4 539/3/4
f 539/3/4 531/3/4 540/3/4
f 536/1/4 537/1/4 542/1/4
f 538/3/4 539/3/4 543/3/4
f 539/4/4 540/4/4 544/4/4
f 543/3/4 539/3/4 544/3/4
f 540/3/4 541/3/4 545/3/4
f 544/4/4 540/4/4 545/4/4
f 545/3/4 541/3/4 546/3/4
f 542/3/4 543/3/4 548/3/4
f 543/4/4 544/4/4 549/4/4
f 548/3/4 543/3/4 549/3/4
f 544/4/4 545/4/4 549/4/4
f 545/4/4 546/4/4 549/4/4
f 549/4/4 546/4/4 550/4/4
f 546/3/4 547/3/4 551/3/4
f 550/4/4 546/4/4 551/4/4
f 551/3/4 547/3/4 552/3/4
f 549/3/4 550/3/4 554/3/4
f 548/4/4 549/4/4 554/4/4
f 551/4/4 552/4/4 555/4/4
f 554/3/4 550/3/4 555/3/4
f 550/4/4 551/4/4 555/4/4
f 555/4/4 552/4/4 556/4/4
f 552/3/4 553/3/4 557/3/4
f 556/4/4 552/4/4 557/4/4
f 557/3/4 553/3/4 558/3/4
f 555/4/4 556/4/4 559/4/4
f 554/4/4 555/4/4 559/4/4
f 556/3/4 557/3/4 560/3/4
f 559/4/4 556/4/4 560/4/4
f 560/3/4 557/3/4 561/3/4
f 554/4/4 559/4/4 562/4/4
f 559/3/4 560/3/4 563/3/4
f 562/4/4 559/4/4 563/4/4
f 563/3/4 560/3/4 564/3/4
f 542/3/4 548/3/4 565/3/4
f 536/1/4 542/1/4 565/1/4
f 548/4/4 554/4/4 566/4/4
f 565/3/4 548/3/4 566/3/4
f 554/4/4 562/4/4 566/4/4
f 562/3/4 563/3/4 567/3/4
f 566/4/4 562/4/4 567/4/4
f 567/3/4 563/3/4 568/3/4
f 532/1/4 533/1/4 569/1/4
f 533/2/4 534/2/4 570/2/4
f 569/1/4 533/1/4 570/1/4
f 534/2/4 535/2/4 570/2/4
f 535/2/4 536/2/4 570/2/4
f 570/2/4 536/2/4 571/2/4
f 571/2/4 536/2/4 572/2/4
f 536/1/4 565/1/4 573/1/4
f 572/2/4 536/2/4 573/2/4
f 573/1/4 565/1/4 574/1/4
f 566/3/4 567/3/4 575/3/4
f 575/3/4 567/3/4 576/3/4
f 570/1/4 571/1/4 577/1/4
f 571/2/4 572/2/4 578/2/4
f 577/1/4 571/1/4 578/1/4
f 578/2/4 572/2/4 579/2/4
f 579/2/4 572/2/4 580/2/4
f 572/1/4 573/1/4 581/1/4
f 580/2/4 572/2/4 581/2/4
f 581/1/4 573/1/4 582/1/4
f 579/2/4 580/2/4 583/2/4
f 578/1/4 579/1/4 583/1/4
f 583/2/4 580/2/4 584/2/4
f 584/2/4 580/2/4 585/2/4
f 580/1/4 581/1/4 586/1/4
f 585/2/4 580/2/4 586/2/4
f 578/1/4 583/1/4 587/1/4
f 583/1/4 584/1/4 587/1/4
f 587/1/4 584/1/4 588/1/4
f 584/2/4 585/2/4 589/2/4
f 588/1/4 584/1/4 589/1/4
f 589/2/4 585/2/4 590/2/4
f 590/2/4 585/2/4 591/2/4
f 585/1/4 586/1/4 592/1/4
f 591/2/4 585/2/4 592/2/4
f 586/1/4 581/1/4 593/1/4
f 592/1/4 586/1/4 593/1/4
f 593/1/4 581/1/4 594/1/4
f 588/1/4 589/1/4 595/1/4
f 589/1/4 590/1/4 595/1/4
f 595/1/4 590/1/4 596/1/4
f 590/2/4 591/2/4 597/2/4
f 596/1/4 590/1/4 597/1/4
f 597/2/4 591/2/4 598/2/4
f 598/2/4 591/2/4 599/2/4
f 591/1/4 592/1/4 600/1/4
f 599/2/4 591/2/4 600/2/4
f 592/1/4 593/1/4 600/1/4
f 600/1/4 593/1/4 601/1/4
f 601/1/4 593/1/4 602/1/4
f 597/1/4 598/1/4 603/1/4
f 596/1/4 597/1/4 603/1/4
f 598/2/4 599/2/4 604/2/4
f 603/1/4 598/1/4 604/1/4
f 604/2/4 599/2/4 605/2/4
f 605/2/4 599/2/4 606/2/4
f 600/1/4 601/1/4 607/1/4
f 606/2/4 599/2/4 607/2/4
f 599/1/4 600/1/4 607/1/4
f 607/1/4 601/1/4 608/1/4
f 604/1/4 605/1/4 609/1/4
f 605/2/4 606/2/4 610/2/4
f 609/1/4 605/1/4 610/1/4
f 606/1/4 607/1/4 611/1/4
f 610/2/4 606/2/4 611/2/4
f 611/1/4 607/1/4 612/1/4
f 610/1/4 611/1/4 613/1/4
f 613/1/4 611/1/4 614/1/4
f 617/1/5 616/1/5 615/1/5
f 618/1/5 616/1/5 617/1/5
f 623/1/5 620/1/5 619/1/5
f 624/1/5 620/1/5 623/1/5
f 625/1/5 622/1/5 621/1/5
f 626/1/5 622/1/5 625/1/5
f 631/1/5 628/1/5 627/1/5
f 632/1/5 628/1/5 631/1/5
f 633/1/5 630/1/5 629/1/5
f 634/1/5 630/1/5 633/1/5
f 639/1/5 636/1/5 635/1/5
f 640/1/5 636/1/5 639/1/5
f 643/1/5 638/1/5 637/1/5
f 644/1/5 638/1/5 643/1/5
f 645/1/5 642/1/5 641/1/5
f 646/1/5 642/1/5 645/1/5
f 653/1/5 648/1/5 647/1/5
f 654/1/5 648/1/5 653/1/5
f 655/1/5 650/1/5 649/1/5
f 656/1/5 650/1/5 655/1/5
f 659/1/5 652/1/5 651/1/5
f 660/1/5 652/1/5 659/1/5
f 661/1/5 658/1/5 657/1/5
f 662/1/5 658/1/5 661/1/5
f 667/1/5 664/1/5 663/1/5
f 668/1/5 664/1/5 667/1/5
f 669/1/5 666/1/5 665/1/5
f 670/1/5 666/1/5 669/1/5
f 675/1/5 672/1/5 671/1/5
f 676/1/5 672/1/5 675/1/5
f 677/1/5 674/1/5 673/1/5
f 678/1/5 674/1/5 677/1/5
f 683/1/5 680/1/5 679/1/5
f 684/1/5 680/1/5 683/1/5
f 685/1/5 682/1/5 681/1/5
f 686/1/5 682/1/5 685/1/5
f 691/1/5 688/1/5 687/1/5
f 692/1/5 688/1/5 691/1/5
f 693/1/5 690/1/5 689/1/5
f 694/1/5 690/1/5 693/1/5
f 699/1/5 696/1/5 695/1/5
f 700/1/5 696/1/5 699/1/5
f 701/1/5 698/1/5 697/1/5
f 702/1/5 698/1/5 701/1/5
f 705/3/5 704/3/5 703/3/5
f 706/3/5 704/3/5 705/3/5
f 709/3/5 708/3/5 707/3/5
f 710/3/5 708/3/5 709/3/5
f 713/3/5 712/3/5 711/3/5
f 714/3/5 712/3/5 713/3/5
f 715/1/6 716/1/6 719/1/6
f 719/1/6 716/1/6 720/1/6
f 717/1/6 718/1/6 721/1/6
f 721/1/6 718/1/6 722/1/6
f 723/1/6 724/1/6 727/1/6
f 727/1/6 724/1/6 728/1/6
f 725/1/6 726/1/6 729/1/6
f 729/1/6 726/1/6 730/1/6
f 731/1/6 732/1/6 735/1/6
f 735/1/6 732/1/6 736/1/6
f 733/1/6 734/1/6 737/1/6
f 737/1/6 734/1/6 738/1/6
f 739/1/6 740/1/6 743/1/6
f 743/1/6 740/1/6 744/1/6
f 741/1/6 742/1/6 745/1/6
f 745/1/6 742/1/6 746/1/6
f 747/1/6 748/1/6 751/1/6
f 751/1/6 748/1/6 752/1/6
f 749/1/6 750/1/6 753/1/6
f 753/1/6 750/1/6 754/1/6
f 755/1/6 756/1/6 761/1/6
f 761/1/6 756/1/6 762/1/6
f 757/1/6 758/1/6 763/1/6
f 763/1/6 758/1/6 764/1/6
f 759/1/6 760/1/6 767/1/6
f 767/1/6 760/1/6 768/1/6
f 765/1/6 766/1/6 769/1/6
f 769/1/6 766/1/6 770/1/6
f 771/1/6 772/1/6 775/1/6
f 775/1/6 772/1/6 776/1/6
f 773/1/6 774/1/6 779/1/6
f 779/1/6 774/1/6 780/1/6
f 777/1/6 778/1/6 781/1/6
f 781/1/6 778/1/6 782/1/6
f 783/1/6 784/1/6 787/1/6
f 787/1/6 784/1/6 788/1/6
f 785/1/6 786/1/6 789/1/6
f 789/1/6 786/1/6 790/1/6
f 791/1/6 792/1/6 795/1/6
f 795/1/6 792/1/6 796/1/6
f 793/1/6 794/1/6 797/1/6
f 797/1/6 794/1/6 798/1/6
f 799/1/6 800/1/6 803/1/6
f 803/1/6 800/1/6 804/1/6
f 801/1/6 802/1/6 805/1/6
f 805/1/6 802/1/6 806/1/6
f 807/3/6 808/3/6 809/3/6
f 809/3/6 808/3/6 810/3/6
f 811/3/6 812/3/6 815/3/6
f 815/3/6 812/3/6 816/3/6
f 813/3/6 814/3/6 817/3/6
f 817/3/6 814/3/6 818/3/6
f 819/3/6 820/3/6 823/3/6
f 823/3/6 820/3/6 824/3/6
f 821/3/6 822/3/6 825/3/6
f 825/3/6 822/3/6 826/3/6
f 827/3/6 828/3/6 831/3/6
f 831/3/6 828/3/6 832/3/6
f 829/3/6 830/3/6 833/3/6
f 833/3/6 830/3/6 834/3/6
f 835/3/6 836/3/6 837/3/6
f 837/3/6 836/3/6 838/3/6
