# MagicaVoxel @ Ephtracy

# group
o 

# material
mtllib Darts.mtl
usemtl palette

# normals
vn -1 0 0
vn 1 0 0
vn 0 0 1
vn 0 0 -1
vn 0 -1 0
vn 0 1 0

# texcoords
vt 0.841797 0.5
vt 0.958984 0.5

# verts
v -0.2 1 -0.7
v -0.2 1 -0.8
v -0.2 1.1 -0.7
v -0.2 1.1 -0.8
v -0.1 0.9 -0.1
v -0.1 0.9 -0.4
v -0.1 1 0.1
v -0.1 1 0
v -0.1 1 -0.1
v -0.1 1 -0.4
v -0.1 1 -0.5
v -0.1 1 -0.6
v -0.1 1 -0.7
v -0.1 1.1 0.1
v -0.1 1.1 0
v -0.1 1.1 -0.1
v -0.1 1.1 -0.4
v -0.1 1.1 -0.5
v -0.1 1.1 -0.6
v -0.1 1.1 -0.7
v -0.1 1.2 -0.1
v -0.1 1.2 -0.4
v 2.98023e-08 0.8 -0.7
v 2.98023e-08 0.8 -0.8
v 2.98023e-08 0.9 0.1
v 2.98023e-08 0.9 0
v 2.98023e-08 0.9 -0.1
v 2.98023e-08 0.9 -0.4
v 2.98023e-08 0.9 -0.5
v 2.98023e-08 0.9 -0.6
v 2.98023e-08 0.9 -0.7
v 2.98023e-08 1 0.4
v 2.98023e-08 1 0.1
v 2.98023e-08 1 0
v 2.98023e-08 1 -0.1
v 2.98023e-08 1 -0.4
v 2.98023e-08 1 -0.5
v 2.98023e-08 1 -0.6
v 2.98023e-08 1 -0.8
v 2.98023e-08 1.1 0.4
v 2.98023e-08 1.1 0.1
v 2.98023e-08 1.1 0
v 2.98023e-08 1.1 -0.1
v 2.98023e-08 1.1 -0.4
v 2.98023e-08 1.1 -0.5
v 2.98023e-08 1.1 -0.6
v 2.98023e-08 1.1 -0.8
v 2.98023e-08 1.2 0.1
v 2.98023e-08 1.2 0
v 2.98023e-08 1.2 -0.1
v 2.98023e-08 1.2 -0.4
v 2.98023e-08 1.2 -0.5
v 2.98023e-08 1.2 -0.6
v 2.98023e-08 1.2 -0.7
v 2.98023e-08 1.3 -0.7
v 2.98023e-08 1.3 -0.8
v 0.1 1 -0.6
v 0.1 1 -0.8
v 0.1 1.1 -0.6
v 0.1 1.1 -0.8
v 2.98023e-08 1 -0.6
v 2.98023e-08 1 -0.8
v 2.98023e-08 1.1 -0.6
v 2.98023e-08 1.1 -0.8
v 0.1 0.8 -0.7
v 0.1 0.8 -0.8
v 0.1 0.9 0.1
v 0.1 0.9 0
v 0.1 0.9 -0.1
v 0.1 0.9 -0.4
v 0.1 0.9 -0.5
v 0.1 0.9 -0.6
v 0.1 0.9 -0.7
v 0.1 1 0.4
v 0.1 1 0.1
v 0.1 1 0
v 0.1 1 -0.1
v 0.1 1 -0.4
v 0.1 1 -0.5
v 0.1 1 -0.6
v 0.1 1 -0.8
v 0.1 1.1 0.4
v 0.1 1.1 0.1
v 0.1 1.1 0
v 0.1 1.1 -0.1
v 0.1 1.1 -0.4
v 0.1 1.1 -0.5
v 0.1 1.1 -0.6
v 0.1 1.1 -0.8
v 0.1 1.2 0.1
v 0.1 1.2 0
v 0.1 1.2 -0.1
v 0.1 1.2 -0.4
v 0.1 1.2 -0.5
v 0.1 1.2 -0.6
v 0.1 1.2 -0.7
v 0.1 1.3 -0.7
v 0.1 1.3 -0.8
v 0.2 0.9 -0.1
v 0.2 0.9 -0.4
v 0.2 1 0.1
v 0.2 1 0
v 0.2 1 -0.1
v 0.2 1 -0.4
v 0.2 1 -0.5
v 0.2 1 -0.6
v 0.2 1 -0.7
v 0.2 1.1 0.1
v 0.2 1.1 0
v 0.2 1.1 -0.1
v 0.2 1.1 -0.4
v 0.2 1.1 -0.5
v 0.2 1.1 -0.6
v 0.2 1.1 -0.7
v 0.2 1.2 -0.1
v 0.2 1.2 -0.4
v 0.3 1 -0.7
v 0.3 1 -0.8
v 0.3 1.1 -0.7
v 0.3 1.1 -0.8
v 2.98023e-08 1 0.4
v 2.98023e-08 1.1 0.4
v 0.1 1 0.4
v 0.1 1.1 0.4
v -0.1 1 0.1
v -0.1 1.1 0.1
v 2.98023e-08 0.9 0.1
v 2.98023e-08 1 0.1
v 2.98023e-08 1.1 0.1
v 2.98023e-08 1.2 0.1
v 0.1 0.9 0.1
v 0.1 1 0.1
v 0.1 1.1 0.1
v 0.1 1.2 0.1
v 0.2 1 0.1
v 0.2 1.1 0.1
v -0.1 0.9 -0.1
v -0.1 1 -0.1
v -0.1 1.1 -0.1
v -0.1 1.2 -0.1
v 2.98023e-08 0.9 -0.1
v 2.98023e-08 1 -0.1
v 2.98023e-08 1.1 -0.1
v 2.98023e-08 1.2 -0.1
v 0.1 0.9 -0.1
v 0.1 1 -0.1
v 0.1 1.1 -0.1
v 0.1 1.2 -0.1
v 0.2 0.9 -0.1
v 0.2 1 -0.1
v 0.2 1.1 -0.1
v 0.2 1.2 -0.1
v -0.1 1 -0.6
v -0.1 1.1 -0.6
v 2.98023e-08 0.9 -0.6
v 2.98023e-08 1 -0.6
v 2.98023e-08 1.1 -0.6
v 2.98023e-08 1.2 -0.6
v 0.1 0.9 -0.6
v 0.1 1 -0.6
v 0.1 1.1 -0.6
v 0.1 1.2 -0.6
v 0.2 1 -0.6
v 0.2 1.1 -0.6
v -0.2 1 -0.7
v -0.2 1.1 -0.7
v -0.1 1 -0.7
v -0.1 1.1 -0.7
v 2.98023e-08 0.8 -0.7
v 2.98023e-08 0.9 -0.7
v 2.98023e-08 1.2 -0.7
v 2.98023e-08 1.3 -0.7
v 0.1 0.8 -0.7
v 0.1 0.9 -0.7
v 0.1 1.2 -0.7
v 0.1 1.3 -0.7
v 0.2 1 -0.7
v 0.2 1.1 -0.7
v 0.3 1 -0.7
v 0.3 1.1 -0.7
v -0.1 0.9 -0.4
v -0.1 1 -0.4
v -0.1 1.1 -0.4
v -0.1 1.2 -0.4
v 2.98023e-08 0.9 -0.4
v 2.98023e-08 1 -0.4
v 2.98023e-08 1.1 -0.4
v 2.98023e-08 1.2 -0.4
v 0.1 0.9 -0.4
v 0.1 1 -0.4
v 0.1 1.1 -0.4
v 0.1 1.2 -0.4
v 0.2 0.9 -0.4
v 0.2 1 -0.4
v 0.2 1.1 -0.4
v 0.2 1.2 -0.4
v -0.1 1 -0.5
v -0.1 1.1 -0.5
v 2.98023e-08 0.9 -0.5
v 2.98023e-08 1 -0.5
v 2.98023e-08 1.1 -0.5
v 2.98023e-08 1.2 -0.5
v 0.1 0.9 -0.5
v 0.1 1 -0.5
v 0.1 1.1 -0.5
v 0.1 1.2 -0.5
v 0.2 1 -0.5
v 0.2 1.1 -0.5
v 2.98023e-08 1 -0.6
v 2.98023e-08 1.1 -0.6
v 0.1 1 -0.6
v 0.1 1.1 -0.6
v -0.2 1 -0.8
v -0.2 1.1 -0.8
v 2.98023e-08 0.8 -0.8
v 2.98023e-08 1 -0.8
v 2.98023e-08 1.1 -0.8
v 2.98023e-08 1.3 -0.8
v 0.1 0.8 -0.8
v 0.1 1 -0.8
v 0.1 1.1 -0.8
v 0.1 1.3 -0.8
v 0.3 1 -0.8
v 0.3 1.1 -0.8
v 2.98023e-08 0.8 -0.7
v 0.1 0.8 -0.7
v 2.98023e-08 0.8 -0.8
v 0.1 0.8 -0.8
v 2.98023e-08 0.9 0.1
v 0.1 0.9 0.1
v 2.98023e-08 0.9 0
v 0.1 0.9 0
v -0.1 0.9 -0.1
v 2.98023e-08 0.9 -0.1
v 0.1 0.9 -0.1
v 0.2 0.9 -0.1
v -0.1 0.9 -0.4
v 2.98023e-08 0.9 -0.4
v 0.1 0.9 -0.4
v 0.2 0.9 -0.4
v 2.98023e-08 0.9 -0.5
v 0.1 0.9 -0.5
v 2.98023e-08 0.9 -0.6
v 0.1 0.9 -0.6
v 2.98023e-08 0.9 -0.7
v 0.1 0.9 -0.7
v 2.98023e-08 1 0.4
v 0.1 1 0.4
v -0.1 1 0.1
v 2.98023e-08 1 0.1
v 0.1 1 0.1
v 0.2 1 0.1
v -0.1 1 0
v 2.98023e-08 1 0
v 0.1 1 0
v 0.2 1 0
v -0.1 1 -0.1
v 2.98023e-08 1 -0.1
v 0.1 1 -0.1
v 0.2 1 -0.1
v -0.1 1 -0.4
v 2.98023e-08 1 -0.4
v 0.1 1 -0.4
v 0.2 1 -0.4
v -0.1 1 -0.5
v 2.98023e-08 1 -0.5
v 0.1 1 -0.5
v 0.2 1 -0.5
v -0.1 1 -0.6
v 2.98023e-08 1 -0.6
v 0.1 1 -0.6
v 0.2 1 -0.6
v -0.2 1 -0.7
v -0.1 1 -0.7
v 0.2 1 -0.7
v 0.3 1 -0.7
v -0.2 1 -0.8
v 2.98023e-08 1 -0.8
v 0.1 1 -0.8
v 0.3 1 -0.8
v 2.98023e-08 1.1 -0.6
v 0.1 1.1 -0.6
v 2.98023e-08 1.1 -0.8
v 0.1 1.1 -0.8
v 2.98023e-08 1 -0.6
v 0.1 1 -0.6
v 2.98023e-08 1 -0.8
v 0.1 1 -0.8
v 2.98023e-08 1.1 0.4
v 0.1 1.1 0.4
v -0.1 1.1 0.1
v 2.98023e-08 1.1 0.1
v 0.1 1.1 0.1
v 0.2 1.1 0.1
v -0.1 1.1 0
v 2.98023e-08 1.1 0
v 0.1 1.1 0
v 0.2 1.1 0
v -0.1 1.1 -0.1
v 2.98023e-08 1.1 -0.1
v 0.1 1.1 -0.1
v 0.2 1.1 -0.1
v -0.1 1.1 -0.4
v 2.98023e-08 1.1 -0.4
v 0.1 1.1 -0.4
v 0.2 1.1 -0.4
v -0.1 1.1 -0.5
v 2.98023e-08 1.1 -0.5
v 0.1 1.1 -0.5
v 0.2 1.1 -0.5
v -0.1 1.1 -0.6
v 2.98023e-08 1.1 -0.6
v 0.1 1.1 -0.6
v 0.2 1.1 -0.6
v -0.2 1.1 -0.7
v -0.1 1.1 -0.7
v 0.2 1.1 -0.7
v 0.3 1.1 -0.7
v -0.2 1.1 -0.8
v 2.98023e-08 1.1 -0.8
v 0.1 1.1 -0.8
v 0.3 1.1 -0.8
v 2.98023e-08 1.2 0.1
v 0.1 1.2 0.1
v 2.98023e-08 1.2 0
v 0.1 1.2 0
v -0.1 1.2 -0.1
v 2.98023e-08 1.2 -0.1
v 0.1 1.2 -0.1
v 0.2 1.2 -0.1
v -0.1 1.2 -0.4
v 2.98023e-08 1.2 -0.4
v 0.1 1.2 -0.4
v 0.2 1.2 -0.4
v 2.98023e-08 1.2 -0.5
v 0.1 1.2 -0.5
v 2.98023e-08 1.2 -0.6
v 0.1 1.2 -0.6
v 2.98023e-08 1.2 -0.7
v 0.1 1.2 -0.7
v 2.98023e-08 1.3 -0.7
v 0.1 1.3 -0.7
v 2.98023e-08 1.3 -0.8
v 0.1 1.3 -0.8

# faces
f 3/1/1 2/1/1 1/1/1
f 4/1/1 2/1/1 3/1/1
f 9/1/1 6/1/1 5/1/1
f 10/1/1 6/1/1 9/1/1
f 14/2/1 8/2/1 7/2/1
f 15/1/1 9/1/1 8/1/1
f 15/2/1 8/2/1 14/2/1
f 15/1/1 10/1/1 9/1/1
f 15/1/1 11/1/1 10/1/1
f 16/1/1 11/1/1 15/1/1
f 17/1/1 11/1/1 16/1/1
f 18/1/1 11/1/1 17/1/1
f 19/1/1 13/1/1 12/1/1
f 20/1/1 13/1/1 19/1/1
f 21/1/1 17/1/1 16/1/1
f 22/1/1 17/1/1 21/1/1
f 31/1/1 24/1/1 23/1/1
f 33/2/1 26/2/1 25/2/1
f 34/1/1 27/1/1 26/1/1
f 34/2/1 26/2/1 33/2/1
f 35/1/1 27/1/1 34/1/1
f 36/1/1 29/1/1 28/1/1
f 37/1/1 29/1/1 36/1/1
f 38/1/1 31/1/1 30/1/1
f 39/1/1 24/1/1 31/1/1
f 39/1/1 31/1/1 38/1/1
f 40/2/1 33/2/1 32/2/1
f 41/2/1 33/2/1 40/2/1
f 45/1/1 38/1/1 37/1/1
f 46/1/1 38/1/1 45/1/1
f 48/2/1 42/2/1 41/2/1
f 49/1/1 43/1/1 42/1/1
f 49/2/1 42/2/1 48/2/1
f 50/1/1 43/1/1 49/1/1
f 51/1/1 45/1/1 44/1/1
f 52/1/1 45/1/1 51/1/1
f 53/1/1 47/1/1 46/1/1
f 54/1/1 47/1/1 53/1/1
f 55/1/1 47/1/1 54/1/1
f 56/1/1 47/1/1 55/1/1
f 59/1/1 58/1/1 57/1/1
f 60/1/1 58/1/1 59/1/1
f 61/1/2 62/1/2 63/1/2
f 63/1/2 62/1/2 64/1/2
f 65/1/2 66/1/2 73/1/2
f 67/2/2 68/2/2 75/2/2
f 68/1/2 69/1/2 76/1/2
f 75/2/2 68/2/2 76/2/2
f 76/1/2 69/1/2 77/1/2
f 70/1/2 71/1/2 78/1/2
f 78/1/2 71/1/2 79/1/2
f 72/1/2 73/1/2 80/1/2
f 73/1/2 66/1/2 81/1/2
f 80/1/2 73/1/2 81/1/2
f 74/2/2 75/2/2 82/2/2
f 82/2/2 75/2/2 83/2/2
f 79/1/2 80/1/2 87/1/2
f 87/1/2 80/1/2 88/1/2
f 83/2/2 84/2/2 90/2/2
f 84/1/2 85/1/2 91/1/2
f 90/2/2 84/2/2 91/2/2
f 91/1/2 85/1/2 92/1/2
f 86/1/2 87/1/2 93/1/2
f 93/1/2 87/1/2 94/1/2
f 88/1/2 89/1/2 95/1/2
f 95/1/2 89/1/2 96/1/2
f 96/1/2 89/1/2 97/1/2
f 97/1/2 89/1/2 98/1/2
f 99/1/2 100/1/2 103/1/2
f 103/1/2 100/1/2 104/1/2
f 101/2/2 102/2/2 108/2/2
f 102/1/2 103/1/2 109/1/2
f 108/2/2 102/2/2 109/2/2
f 103/1/2 104/1/2 109/1/2
f 104/1/2 105/1/2 109/1/2
f 109/1/2 105/1/2 110/1/2
f 110/1/2 105/1/2 111/1/2
f 111/1/2 105/1/2 112/1/2
f 106/1/2 107/1/2 113/1/2
f 113/1/2 107/1/2 114/1/2
f 110/1/2 111/1/2 115/1/2
f 115/1/2 111/1/2 116/1/2
f 117/1/2 118/1/2 119/1/2
f 119/1/2 118/1/2 120/1/2
f 123/2/3 122/2/3 121/2/3
f 124/2/3 122/2/3 123/2/3
f 128/2/3 126/2/3 125/2/3
f 129/2/3 126/2/3 128/2/3
f 131/2/3 128/2/3 127/2/3
f 132/2/3 128/2/3 131/2/3
f 133/2/3 130/2/3 129/2/3
f 134/2/3 130/2/3 133/2/3
f 135/2/3 133/2/3 132/2/3
f 136/2/3 133/2/3 135/2/3
f 141/1/3 138/1/3 137/1/3
f 142/1/3 138/1/3 141/1/3
f 143/1/3 140/1/3 139/1/3
f 144/1/3 140/1/3 143/1/3
f 149/1/3 146/1/3 145/1/3
f 150/1/3 146/1/3 149/1/3
f 151/1/3 148/1/3 147/1/3
f 152/1/3 148/1/3 151/1/3
f 156/1/3 154/1/3 153/1/3
f 157/1/3 154/1/3 156/1/3
f 159/1/3 156/1/3 155/1/3
f 160/1/3 156/1/3 159/1/3
f 161/1/3 158/1/3 157/1/3
f 162/1/3 158/1/3 161/1/3
f 163/1/3 161/1/3 160/1/3
f 164/1/3 161/1/3 163/1/3
f 167/1/3 166/1/3 165/1/3
f 168/1/3 166/1/3 167/1/3
f 173/1/3 170/1/3 169/1/3
f 174/1/3 170/1/3 173/1/3
f 175/1/3 172/1/3 171/1/3
f 176/1/3 172/1/3 175/1/3
f 179/1/3 178/1/3 177/1/3
f 180/1/3 178/1/3 179/1/3
f 181/1/4 182/1/4 185/1/4
f 185/1/4 182/1/4 186/1/4
f 183/1/4 184/1/4 187/1/4
f 187/1/4 184/1/4 188/1/4
f 189/1/4 190/1/4 193/1/4
f 193/1/4 190/1/4 194/1/4
f 191/1/4 192/1/4 195/1/4
f 195/1/4 192/1/4 196/1/4
f 197/1/4 198/1/4 200/1/4
f 200/1/4 198/1/4 201/1/4
f 199/1/4 200/1/4 203/1/4
f 203/1/4 200/1/4 204/1/4
f 201/1/4 202/1/4 205/1/4
f 205/1/4 202/1/4 206/1/4
f 204/1/4 205/1/4 207/1/4
f 207/1/4 205/1/4 208/1/4
f 209/1/4 210/1/4 211/1/4
f 211/1/4 210/1/4 212/1/4
f 213/1/4 214/1/4 216/1/4
f 216/1/4 214/1/4 217/1/4
f 215/1/4 216/1/4 219/1/4
f 219/1/4 216/1/4 220/1/4
f 217/1/4 218/1/4 221/1/4
f 221/1/4 218/1/4 222/1/4
f 220/1/4 221/1/4 223/1/4
f 223/1/4 221/1/4 224/1/4
f 227/1/5 226/1/5 225/1/5
f 228/1/5 226/1/5 227/1/5
f 231/2/5 230/2/5 229/2/5
f 232/2/5 230/2/5 231/2/5
f 234/1/5 232/1/5 231/1/5
f 235/1/5 232/1/5 234/1/5
f 237/1/5 235/1/5 234/1/5
f 237/1/5 236/1/5 235/1/5
f 237/1/5 234/1/5 233/1/5
f 238/1/5 236/1/5 237/1/5
f 239/1/5 236/1/5 238/1/5
f 240/1/5 236/1/5 239/1/5
f 241/1/5 239/1/5 238/1/5
f 242/1/5 239/1/5 241/1/5
f 245/1/5 244/1/5 243/1/5
f 246/1/5 244/1/5 245/1/5
f 250/2/5 248/2/5 247/2/5
f 251/2/5 248/2/5 250/2/5
f 253/2/5 250/2/5 249/2/5
f 254/2/5 250/2/5 253/2/5
f 255/2/5 252/2/5 251/2/5
f 256/2/5 252/2/5 255/2/5
f 257/1/5 254/1/5 253/1/5
f 258/1/5 254/1/5 257/1/5
f 259/1/5 256/1/5 255/1/5
f 260/1/5 256/1/5 259/1/5
f 265/1/5 262/1/5 261/1/5
f 266/1/5 262/1/5 265/1/5
f 267/1/5 264/1/5 263/1/5
f 268/1/5 264/1/5 267/1/5
f 270/1/5 267/1/5 266/1/5
f 271/1/5 267/1/5 270/1/5
f 274/1/5 270/1/5 269/1/5
f 275/1/5 272/1/5 271/1/5
f 277/1/5 274/1/5 273/1/5
f 278/1/5 270/1/5 274/1/5
f 278/1/5 274/1/5 277/1/5
f 279/1/5 275/1/5 271/1/5
f 279/1/5 276/1/5 275/1/5
f 280/1/5 276/1/5 279/1/5
f 283/1/5 282/1/5 281/1/5
f 284/1/5 282/1/5 283/1/5
f 285/1/6 286/1/6 287/1/6
f 287/1/6 286/1/6 288/1/6
f 289/2/6 290/2/6 292/2/6
f 292/2/6 290/2/6 293/2/6
f 291/2/6 292/2/6 295/2/6
f 295/2/6 292/2/6 296/2/6
f 293/2/6 294/2/6 297/2/6
f 297/2/6 294/2/6 298/2/6
f 295/1/6 296/1/6 299/1/6
f 299/1/6 296/1/6 300/1/6
f 297/1/6 298/1/6 301/1/6
f 301/1/6 298/1/6 302/1/6
f 303/1/6 304/1/6 307/1/6
f 307/1/6 304/1/6 308/1/6
f 305/1/6 306/1/6 309/1/6
f 309/1/6 306/1/6 310/1/6
f 308/1/6 309/1/6 312/1/6
f 312/1/6 309/1/6 313/1/6
f 311/1/6 312/1/6 316/1/6
f 313/1/6 314/1/6 317/1/6
f 315/1/6 316/1/6 319/1/6
f 316/1/6 312/1/6 320/1/6
f 319/1/6 316/1/6 320/1/6
f 313/1/6 317/1/6 321/1/6
f 317/1/6 318/1/6 321/1/6
f 321/1/6 318/1/6 322/1/6
f 323/2/6 324/2/6 325/2/6
f 325/2/6 324/2/6 326/2/6
f 325/1/6 326/1/6 328/1/6
f 328/1/6 326/1/6 329/1/6
f 328/1/6 329/1/6 331/1/6
f 329/1/6 330/1/6 331/1/6
f 327/1/6 328/1/6 331/1/6
f 331/1/6 330/1/6 332/1/6
f 332/1/6 330/1/6 333/1/6
f 333/1/6 330/1/6 334/1/6
f 332/1/6 333/1/6 335/1/6
f 335/1/6 333/1/6 336/1/6
f 337/1/6 338/1/6 339/1/6
f 339/1/6 338/1/6 340/1/6
f 341/1/6 342/1/6 343/1/6
f 343/1/6 342/1/6 344/1/6
